<?xml version="1.0" encoding="UTF-8"?>
<!DOCTYPE svg PUBLIC "-//W3C//DTD SVG 1.1//EN" "http://www.w3.org/Graphics/SVG/1.1/DTD/svg11.dtd">
<!-- Creator: CorelDRAW 2019 (64-Bit) -->
<svg xmlns="http://www.w3.org/2000/svg" xml:space="preserve" width="192.587mm" height="50.9331mm" version="1.1" style="shape-rendering:geometricPrecision; text-rendering:geometricPrecision; image-rendering:optimizeQuality; fill-rule:evenodd; clip-rule:evenodd"
viewBox="0 0 192.5794 50.9311"
 xmlns:xlink="http://www.w3.org/1999/xlink"
 xmlns:xodm="http://www.corel.com/coreldraw/odm/2003">
 <defs>
  <style type="text/css">
   <![CDATA[
    .fil0 {fill:#B80034}
    .fil1 {fill:black}
   ]]>
  </style>
 </defs>
 <g id="Layer_x0020_1">
  <metadata id="CorelCorpID_0Corel-Layer"/>
  <g id="_830843152">
   <polygon class="fil0" points="32.9517,50.3281 26.4215,38.6757 50.0287,38.6757 38.1746,13.5616 20.7959,50.3281 -0,50.3281 27.2255,0.7039 49.1251,0.7039 76.1475,50.3281 "/>
   <path class="fil0" d="M76.2484 21.4977l25.9179 0c6.5292,0 9.1416,-0.4014 9.1416,-5.0218 0,-4.4202 -2.1097,-4.9224 -8.8411,-4.9224l-26.3194 0 -5.8261 -10.8496 36.5656 0c17.2785,0 23.708,7.5339 23.708,15.5702 0,7.7352 -5.9281,16.2741 -24.9133,16.2741l-8.6392 0 0 17.7799 -20.8958 0 0 -28.8304 0.1017 0z"/>
   <path class="fil0" d="M184.7415 46.6132c-6.227,2.9109 -13.9622,4.3179 -22.2016,4.3179 -24.9105,0 -33.4514,-13.8625 -33.4514,-25.316 0,-14.4642 12.6591,-25.6151 34.4577,-25.6151 7.9366,0 14.8682,1.2053 20.6949,3.4164l0 14.3643c-6.0282,-3.2147 -11.2529,-4.6204 -17.3811,-4.6204 -10.4469,0 -18.9853,4.7213 -18.9853,12.2552 0,7.4338 8.7399,12.2566 19.1868,12.2566 6.0268,0 10.9513,-1.2067 17.6814,-4.3205l0 13.2616 -0.0013 0z"/>
   <path class="fil1" d="M186.1697 6.879c0,-1.8158 1.4728,-3.1538 3.2137,-3.1538 1.7217,0 3.196,1.3379 3.196,3.1538 0,1.8321 -1.4742,3.1714 -3.196,3.1714 -1.7408,0 -3.2137,-1.3392 -3.2137,-3.1714zm3.2137 2.6445l0 0c1.4308,0 2.5588,-1.1212 2.5588,-2.6445 0,-1.4979 -1.1293,-2.6269 -2.5588,-2.6269 -1.4472,0 -2.5767,1.129 -2.5767,2.6269 0,1.5233 1.1295,2.6445 2.5767,2.6445zm-0.6682 -0.8124l0 0 0.6614 -2.0494 -0.6614 0 0 -1.1294 0.7519 0c0.3856,0 0.7953,0.0836 0.7953,0.5354 0,0.56 -0.4193,0.594 -0.8873,0.594l-0.6599 2.0494 0 -1.5811 0.6343 0 0.963 1.5811 0.6181 0 -1.0361 -1.606c0.5357,-0.0665 0.9441,-0.3508 0.9441,-1.0044 0,-0.7197 -0.4259,-1.0376 -1.2876,-1.0376l-1.389 0 0 3.648 0.5533 0z"/>
  </g>
 </g>
</svg>
