<?xml version="1.0" encoding="utf-8"?>
<!-- Generator: Adobe Illustrator 19.2.1, SVG Export Plug-In . SVG Version: 6.00 Build 0)  -->
<svg version="1.1" id="layer" xmlns="http://www.w3.org/2000/svg" xmlns:xlink="http://www.w3.org/1999/xlink" x="0px" y="0px"
	 viewBox="0 0 652 652" style="enable-background:new 0 0 652 652;" xml:space="preserve">
<style type="text/css">
	.st0{fill-rule:evenodd;clip-rule:evenodd;fill:#D90A07;}
	.st1{fill-rule:evenodd;clip-rule:evenodd;fill:#FFFFFF;}
</style>
<g>
	<path class="st0" d="M534.7,14.7C522.8,22,510.5,35.8,520,51.1c14.4,23.2,44.5-6,50.5,3.5c2.6,4.2-0.4,7.7-3.8,9.8l-6.7,1.6
		l-3.9-1.6l-21.5,13.3c9.3,13,26.3,8.4,39.3,0.3c20.8-12.9,25.4-27.4,17.7-39.9c-13.8-22.4-46.4,5.4-51.6-2.9
		c-1.8-3-0.1-5.8,3.8-8.2l5.5-1.4l3.5,1.6l20.5-12.9l65.1,0.1v226.8l-286.8,0.4c-46.7,0-84.6,37.9-84.6,84.6
		c0,46.7,37.8,84.6,84.6,84.6h286.8v226.5L327.2,638C155,638,15.4,498.4,15.4,326.2C15.4,154,155,14.5,327.2,14.5"/>
</g>
<path class="st1" d="M209.3,301.3l-21,13l-5.3-4.2c-1.8,8.3-4.8,12.9-14.1,18.6c-12.4,7.7-25.4,4.6-36-12.5l-22.6-36.5l22.6-14
	l20.1,32.4c5.1,8.2,9.4,9.1,14.8,5.8c6.5-4.1,5.4-10.5-0.3-19.8l-17.9-28.8l22.6-14"/>
<path class="st1" d="M182.4,235l20.8-12.9l5.4,4.3c0-6.3,5-13,11.6-17.2c10.1-6.5,18.7-5.3,25.4-0.5c0.4-10.2,4.5-18,12.9-23.2
	c16.6-10.3,28-3.7,38.1,12.7l21.9,35.5l-22.6,14l-18.9-30.5c-5.4-8.8-9.2-11.3-15.2-7.6c-6.6,4.1-4.2,11,0.3,18.2l18.3,29.6
	l-22.6,14l-18.9-30.5c-5.5-8.9-9.3-11.4-15.3-7.7c-6.6,4.1-4.2,11,0.3,18.2l18.3,29.6l-22.6,14"/>
<polyline class="st1" points="438.7,159.3 401.6,99.4 424.2,85.4 461.2,145.3 "/>
<polyline class="st1" points="386.4,74.8 409,60.8 419.4,77.7 396.8,91.7 "/>
<path class="st1" d="M436.2,78l20.6-12.8l6.6,4.4c0.5-6.2,3-12.8,11.6-18c15-9.3,27.8-4.4,38,12l22.3,35.9l-22.6,14L493,81.9
	c-3.7-6-8.5-10.3-14.9-6.3c-6.9,4.3-5.9,10.2-1.2,17.8l18.9,30.5l-22.6,14"/>
<path class="st1" d="M291,167.8l20.8-12.8l5.4,4.3c0-6.3,5-13,11.6-17.2c10.1-6.5,18.7-5.3,25.4-0.5c0.4-10.2,4.5-18,12.9-23.2
	c16.6-10.3,28-3.7,38.1,12.7l21.9,35.5l-22.6,14L385.5,150c-5.4-8.8-9.3-11.4-15.3-7.7c-6.6,4.1-4.2,11,0.3,18.2l18.3,29.6l-22.6,14
	l-18.9-30.5c-5.5-8.9-9.3-11.4-15.3-7.7c-6.6,4.1-4.1,11,0.3,18.2l18.3,29.6l-22.6,14"/>
<path class="st1" d="M109,363.3c-24.3,15.1-56.3,7.5-71.4-16.8c-15.1-24.4-7.5-56.3,16.8-71.4l29.4-18.2l14.3,23l-25.4,15.7
	c-11.6,7.2-15.2,22.5-8,34.1c7.2,11.6,22.5,15.2,34.1,8l25.4-15.7l14.2,23"/>
</svg>
