<?xml version="1.0" encoding="UTF-8" standalone="no"?>
<!-- Created with Inkscape (http://www.inkscape.org/) -->

<svg
   xmlns:dc="http://purl.org/dc/elements/1.1/"
   xmlns:cc="http://creativecommons.org/ns#"
   xmlns:rdf="http://www.w3.org/1999/02/22-rdf-syntax-ns#"
   xmlns:svg="http://www.w3.org/2000/svg"
   xmlns="http://www.w3.org/2000/svg"
   version="1.1"
   width="340"
   height="70.12616"
   id="svg2">
  <defs
     id="defs4">
    <clipPath
       id="clipPath3093">
      <path
         d="m 2.4308,0.25 590.138,0 0,840.5 -590.138,0 0,-840.5 z"
         id="path3095" />
    </clipPath>
    <clipPath
       id="clipPath3087">
      <path
         d="m 523.422,158.514 -449.161,0 0,304.855 449.161,0 0,-304.855 z"
         id="path3089" />
    </clipPath>
    <clipPath
       id="clipPath3039">
      <path
         d="m 2.4308,0.25 590.138,0 0,840.5 -590.138,0 0,-840.5 z"
         id="path3041" />
    </clipPath>
    <clipPath
       id="clipPath3011">
      <path
         d="m 73.963,818.217 36.362,0 0,-44.231 -36.362,0 0,44.231 z"
         id="path3013" />
    </clipPath>
    <clipPath
       id="clipPath3011-4">
      <path
         d="m 73.963,818.217 36.362,0 0,-44.231 -36.362,0 0,44.231 z"
         id="path3013-0" />
    </clipPath>
    <clipPath
       id="clipPath3965">
      <path
         d="m 0.0726,827.2834 621.3231,0 0,-827.28 -621.3231,0 0,827.28 z"
         id="path3967" />
    </clipPath>
    <linearGradient
       x1="-22.6514"
       y1="0"
       x2="22.6514"
       y2="0"
       id="linearGradient5438"
       gradientUnits="userSpaceOnUse"
       gradientTransform="matrix(0.996908,0,0,-0.99788,547.7721,807.09082)">
      <stop
         id="stop5440"
         style="stop-color:#a04636;stop-opacity:1"
         offset="0" />
      <stop
         id="stop5442"
         style="stop-color:#fbc707;stop-opacity:1"
         offset="1" />
    </linearGradient>
    <clipPath
       id="clipPath5426">
      <path
         d="m 563.819,805.418 -11.706,7.523 c 2.504,-4.879 -1.267,-10.343 -6.022,-11.67 -1.942,-0.654 -4.986,-0.696 -7.503,1.217 -3.111,2.365 -3.864,6.007 -3.672,9.689 0.157,2.989 0.923,6.435 2.263,10.311 -3.585,-6.99 -5.456,-12.926 -5.384,-17.667 0.077,-5.09 3.062,-9.734 7.808,-11.746 3.258,-1.381 7.2,-1.225 11.98,0.818 5.497,2.733 9.059,6.988 12.236,11.525"
         id="path5428" />
    </clipPath>
    <linearGradient
       x1="-16.098"
       y1="0"
       x2="16.098"
       y2="0"
       id="linearGradient5414"
       gradientUnits="userSpaceOnUse"
       gradientTransform="matrix(-0.996908,0,0,0.99788,554.04694,813.18176)">
      <stop
         id="stop5416"
         style="stop-color:#a04636;stop-opacity:1"
         offset="0" />
      <stop
         id="stop5418"
         style="stop-color:#fbc707;stop-opacity:1"
         offset="1" />
    </linearGradient>
    <clipPath
       id="clipPath5402">
      <path
         d="m 537.999,814.855 11.706,-7.523 c -2.504,4.879 1.267,10.343 6.022,11.669 1.942,0.655 4.986,0.697 7.503,-1.217 3.111,-2.365 3.865,-6.006 3.672,-9.689 -0.157,-2.988 -0.923,-6.434 -2.263,-10.31 3.585,6.989 5.456,12.926 5.384,17.666 -0.077,5.091 -3.062,9.735 -7.808,11.747 -3.258,1.381 -7.2,1.224 -11.98,-0.819 -5.497,-2.733 -9.059,-6.988 -12.236,-11.524"
         id="path5404" />
    </clipPath>
    <clipPath
       id="clipPath5390">
      <path
         d="m 542.466,811.984 7.239,-4.652 c -0.72,1.404 -0.921,2.856 -0.728,4.245 0.531,1.45 1.303,3.097 2.592,4.358 1.548,1.516 4.074,2.38 6.162,1.487 2.489,-1.063 2.771,-4.467 2.383,-6.792 -0.15,-0.9 -0.413,-1.667 -0.763,-2.341 l -7.238,4.651 c 0.72,-1.404 0.92,-2.856 0.727,-4.244 -0.53,-1.451 -1.302,-3.097 -2.591,-4.359 -1.548,-1.515 -4.074,-2.379 -6.163,-1.486 -2.488,1.063 -2.77,4.466 -2.382,6.791 0.15,0.901 0.412,1.668 0.762,2.342 z m -5.291,10.493 0.004,0.011 -0.018,-0.034 c -0.277,-0.464 -0.525,-0.966 -0.748,-1.498 -3.084,-6.328 -4.685,-11.744 -4.618,-16.135 0.077,-5.09 3.062,-9.734 7.807,-11.746 3.259,-1.381 7.201,-1.225 11.981,0.818 3.527,1.754 6.258,4.135 8.602,6.815 l 4.453,-2.923 0.005,0.01 -0.004,-0.011 0.018,0.034 c 0.277,0.465 0.525,0.967 0.748,1.499 3.085,6.328 4.685,11.744 4.618,16.135 -0.077,5.09 -3.062,9.734 -7.807,11.745 -3.259,1.382 -7.201,1.225 -11.981,-0.818 -3.521,-1.75 -6.248,-4.125 -8.588,-6.799 l -0.014,-0.015 -4.452,2.922 -0.006,-0.01"
         id="path5392" />
    </clipPath>
    <linearGradient
       x1="-19.1747"
       y1="0"
       x2="19.1747"
       y2="0"
       id="linearGradient5378"
       gradientUnits="userSpaceOnUse"
       gradientTransform="matrix(-0.996908,0,0,0.99788,550.90912,810.13648)">
      <stop
         id="stop5380"
         style="stop-color:#a04636;stop-opacity:1"
         offset="0" />
      <stop
         id="stop5382"
         style="stop-color:#fbc707;stop-opacity:1"
         offset="1" />
    </linearGradient>
    <clipPath
       id="clipPath5358">
      <path
         d="m 0,846.015 594,0 0,-82.915 -594,0 0,82.915 z"
         id="path5360" />
    </clipPath>
    <linearGradient
       x1="-19.1747"
       y1="0"
       x2="19.1747"
       y2="0"
       id="linearGradient5378-3"
       gradientUnits="userSpaceOnUse"
       gradientTransform="matrix(-0.996908,0,0,0.99788,550.90912,810.13648)">
      <stop
         id="stop5380-0"
         style="stop-color:#a04636;stop-opacity:1"
         offset="0" />
      <stop
         id="stop5382-8"
         style="stop-color:#fbc707;stop-opacity:1"
         offset="1" />
    </linearGradient>
    <clipPath
       id="clipPath5390-9">
      <path
         d="m 542.466,811.984 7.239,-4.652 c -0.72,1.404 -0.921,2.856 -0.728,4.245 0.531,1.45 1.303,3.097 2.592,4.358 1.548,1.516 4.074,2.38 6.162,1.487 2.489,-1.063 2.771,-4.467 2.383,-6.792 -0.15,-0.9 -0.413,-1.667 -0.763,-2.341 l -7.238,4.651 c 0.72,-1.404 0.92,-2.856 0.727,-4.244 -0.53,-1.451 -1.302,-3.097 -2.591,-4.359 -1.548,-1.515 -4.074,-2.379 -6.163,-1.486 -2.488,1.063 -2.77,4.466 -2.382,6.791 0.15,0.901 0.412,1.668 0.762,2.342 z m -5.291,10.493 0.004,0.011 -0.018,-0.034 c -0.277,-0.464 -0.525,-0.966 -0.748,-1.498 -3.084,-6.328 -4.685,-11.744 -4.618,-16.135 0.077,-5.09 3.062,-9.734 7.807,-11.746 3.259,-1.381 7.201,-1.225 11.981,0.818 3.527,1.754 6.258,4.135 8.602,6.815 l 4.453,-2.923 0.005,0.01 -0.004,-0.011 0.018,0.034 c 0.277,0.465 0.525,0.967 0.748,1.499 3.085,6.328 4.685,11.744 4.618,16.135 -0.077,5.09 -3.062,9.734 -7.807,11.745 -3.259,1.382 -7.201,1.225 -11.981,-0.818 -3.521,-1.75 -6.248,-4.125 -8.588,-6.799 l -0.014,-0.015 -4.452,2.922 -0.006,-0.01"
         id="path5392-1" />
    </clipPath>
    <clipPath
       id="clipPath5402-3">
      <path
         d="m 537.999,814.855 11.706,-7.523 c -2.504,4.879 1.267,10.343 6.022,11.669 1.942,0.655 4.986,0.697 7.503,-1.217 3.111,-2.365 3.865,-6.006 3.672,-9.689 -0.157,-2.988 -0.923,-6.434 -2.263,-10.31 3.585,6.989 5.456,12.926 5.384,17.666 -0.077,5.091 -3.062,9.735 -7.808,11.747 -3.258,1.381 -7.2,1.224 -11.98,-0.819 -5.497,-2.733 -9.059,-6.988 -12.236,-11.524"
         id="path5404-4" />
    </clipPath>
    <linearGradient
       x1="-16.098"
       y1="0"
       x2="16.098"
       y2="0"
       id="linearGradient5414-7"
       gradientUnits="userSpaceOnUse"
       gradientTransform="matrix(-0.996908,0,0,0.99788,554.04694,813.18176)">
      <stop
         id="stop5416-4"
         style="stop-color:#a04636;stop-opacity:1"
         offset="0" />
      <stop
         id="stop5418-6"
         style="stop-color:#fbc707;stop-opacity:1"
         offset="1" />
    </linearGradient>
    <clipPath
       id="clipPath5426-3">
      <path
         d="m 563.819,805.418 -11.706,7.523 c 2.504,-4.879 -1.267,-10.343 -6.022,-11.67 -1.942,-0.654 -4.986,-0.696 -7.503,1.217 -3.111,2.365 -3.864,6.007 -3.672,9.689 0.157,2.989 0.923,6.435 2.263,10.311 -3.585,-6.99 -5.456,-12.926 -5.384,-17.667 0.077,-5.09 3.062,-9.734 7.808,-11.746 3.258,-1.381 7.2,-1.225 11.98,0.818 5.497,2.733 9.059,6.988 12.236,11.525"
         id="path5428-6" />
    </clipPath>
    <linearGradient
       x1="-22.6514"
       y1="0"
       x2="22.6514"
       y2="0"
       id="linearGradient5438-5"
       gradientUnits="userSpaceOnUse"
       gradientTransform="matrix(0.996908,0,0,-0.99788,547.7721,807.09082)">
      <stop
         id="stop5440-2"
         style="stop-color:#a04636;stop-opacity:1"
         offset="0" />
      <stop
         id="stop5442-8"
         style="stop-color:#fbc707;stop-opacity:1"
         offset="1" />
    </linearGradient>
    <clipPath
       id="clipPath10639">
      <path
         d="m 0,0 595.275,0 0,841.887 L 0,841.887 0,0 z"
         id="path10641" />
    </clipPath>
    <clipPath
       id="clipPath10625">
      <path
         d="m 157.43,388.435 2.722,0 0,2.704 -2.722,0 0,-2.704 z"
         id="path10627" />
    </clipPath>
    <clipPath
       id="clipPath10611">
      <path
         d="m 160.951,388.435 2.722,0 0,2.704 -2.722,0 0,-2.704 z"
         id="path10613" />
    </clipPath>
    <clipPath
       id="clipPath10597">
      <path
         d="m 164.472,388.435 2.721,0 0,2.704 -2.721,0 0,-2.704 z"
         id="path10599" />
    </clipPath>
    <clipPath
       id="clipPath10583">
      <path
         d="m 87.876,385.29 79.317,0 0,23.211 -79.317,0 0,-23.211 z"
         id="path10585" />
    </clipPath>
    <clipPath
       id="clipPath10135">
      <path
         d="m 396.216,257.931 85.671,0 0,36.333 -85.671,0 0,-36.333 z"
         id="path10137" />
    </clipPath>
    <clipPath
       id="clipPath10121">
      <path
         d="m 433.908,286.911 c 0,-2.853 2.313,-5.166 5.166,-5.166 l 0,0 c 2.853,0 5.166,2.313 5.166,5.166 l 0,0 c 0,2.853 -2.313,5.166 -5.166,5.166 l 0,0 c -2.853,0 -5.166,-2.313 -5.166,-5.166"
         id="path10123" />
    </clipPath>
    <clipPath
       id="clipPath9985">
      <path
         d="m 396.216,257.931 85.671,0 0,36.333 -85.671,0 0,-36.333 z"
         id="path9987" />
    </clipPath>
    <radialGradient
       cx="0"
       cy="0"
       r="1"
       fx="0"
       fy="0"
       id="radialGradient9969"
       gradientUnits="userSpaceOnUse"
       gradientTransform="matrix(22.590652,0,0,-22.590652,439.14508,282.73535)"
       spreadMethod="pad">
      <stop
         id="stop9971"
         style="stop-color:#ffffff;stop-opacity:1"
         offset="0" />
      <stop
         id="stop9973"
         style="stop-color:#137592;stop-opacity:1"
         offset="0.39999399" />
      <stop
         id="stop9975"
         style="stop-color:#005471;stop-opacity:1"
         offset="0.69999701" />
      <stop
         id="stop9977"
         style="stop-color:#005471;stop-opacity:1"
         offset="1" />
    </radialGradient>
    <clipPath
       id="clipPath9965">
      <path
         d="m -0.89122,-0.457779 1.776169,0 0,0.915558 -1.776169,0 0,-0.915558 z"
         id="path9967" />
    </clipPath>
    <clipPath
       id="clipPath9955">
      <path
         d="m 419.013,282.726 c 0,-5.706 9.018,-10.332 20.061,-10.332 l 0,0 c 11.043,0 20.061,4.626 20.061,10.332 l 0,0 c 0,5.706 -9.018,10.35 -20.061,10.35 l 0,0 c -11.043,0 -20.061,-4.644 -20.061,-10.35 m 14.895,4.185 c 0,2.853 2.313,5.166 5.166,5.166 l 0,0 c 2.853,0 5.166,-2.313 5.166,-5.166 l 0,0 c 0,-2.853 -2.313,-5.166 -5.166,-5.166 l 0,0 c -2.853,0 -5.166,2.313 -5.166,5.166"
         id="path9957" />
    </clipPath>
    <linearGradient
       x1="0"
       y1="0"
       x2="1"
       y2="0"
       id="linearGradient9923"
       gradientUnits="userSpaceOnUse"
       gradientTransform="matrix(-11.135498,23.880157,23.880157,11.135498,444.96799,270.0892)"
       spreadMethod="pad">
      <stop
         id="stop9925"
         style="stop-color:#808285;stop-opacity:1"
         offset="0" />
      <stop
         id="stop9927"
         style="stop-color:#ffffff;stop-opacity:1"
         offset="0.100006" />
      <stop
         id="stop9929"
         style="stop-color:#808285;stop-opacity:1"
         offset="0.220001" />
      <stop
         id="stop9931"
         style="stop-color:#bcbdc0;stop-opacity:1"
         offset="0.44999701" />
      <stop
         id="stop9933"
         style="stop-color:#bcbdc0;stop-opacity:1"
         offset="0.44999701" />
      <stop
         id="stop9935"
         style="stop-color:#ffffff;stop-opacity:1"
         offset="0.52000397" />
      <stop
         id="stop9937"
         style="stop-color:#bcbdc0;stop-opacity:1"
         offset="0.58999598" />
      <stop
         id="stop9939"
         style="stop-color:#808285;stop-opacity:1"
         offset="0.67999297" />
      <stop
         id="stop9941"
         style="stop-color:#939598;stop-opacity:1"
         offset="0.77999902" />
      <stop
         id="stop9943"
         style="stop-color:#ffffff;stop-opacity:1"
         offset="0.869995" />
      <stop
         id="stop9945"
         style="stop-color:#939598;stop-opacity:1"
         offset="0.96000701" />
      <stop
         id="stop9947"
         style="stop-color:#808285;stop-opacity:1"
         offset="1" />
    </linearGradient>
    <clipPath
       id="clipPath9919">
      <path
         d="m -0.158157,-0.866547 1.375337,0 0,1.733307 -1.375337,0 0,-1.733307 z"
         id="path9921" />
    </clipPath>
    <clipPath
       id="clipPath9909">
      <path
         d="m 418.788,282.726 c 0,-5.796 9.108,-10.521 20.286,-10.521 l 0,0 c 11.178,0 20.286,4.725 20.286,10.521 l 0,0 c 0,5.796 -9.108,10.539 -20.286,10.539 l 0,0 c -11.178,0 -20.286,-4.743 -20.286,-10.539 m 0.225,0 c 0,5.706 9.018,10.35 20.061,10.35 l 0,0 c 11.043,0 20.061,-4.644 20.061,-10.35 l 0,0 c 0,-5.706 -9.018,-10.332 -20.061,-10.332 l 0,0 c -11.043,0 -20.061,4.626 -20.061,10.332"
         id="path9911" />
    </clipPath>
    <clipPath
       id="clipPath9897">
      <path
         d="m 396.216,257.931 85.671,0 0,36.333 -85.671,0 0,-36.333 z"
         id="path9899" />
    </clipPath>
    <linearGradient
       x1="0"
       y1="0"
       x2="1"
       y2="0"
       id="linearGradient9865"
       gradientUnits="userSpaceOnUse"
       gradientTransform="matrix(9.5015259,23.51712,23.51712,-9.5015259,434.19019,270.64005)"
       spreadMethod="pad">
      <stop
         id="stop9867"
         style="stop-color:#808285;stop-opacity:1"
         offset="0" />
      <stop
         id="stop9869"
         style="stop-color:#ffffff;stop-opacity:1"
         offset="0.100006" />
      <stop
         id="stop9871"
         style="stop-color:#808285;stop-opacity:1"
         offset="0.220001" />
      <stop
         id="stop9873"
         style="stop-color:#bcbdc0;stop-opacity:1"
         offset="0.44999701" />
      <stop
         id="stop9875"
         style="stop-color:#bcbdc0;stop-opacity:1"
         offset="0.44999701" />
      <stop
         id="stop9877"
         style="stop-color:#ffffff;stop-opacity:1"
         offset="0.52000397" />
      <stop
         id="stop9879"
         style="stop-color:#bcbdc0;stop-opacity:1"
         offset="0.58999598" />
      <stop
         id="stop9881"
         style="stop-color:#808285;stop-opacity:1"
         offset="0.67999297" />
      <stop
         id="stop9883"
         style="stop-color:#939598;stop-opacity:1"
         offset="0.77999902" />
      <stop
         id="stop9885"
         style="stop-color:#ffffff;stop-opacity:1"
         offset="0.869995" />
      <stop
         id="stop9887"
         style="stop-color:#939598;stop-opacity:1"
         offset="0.96000701" />
      <stop
         id="stop9889"
         style="stop-color:#808285;stop-opacity:1"
         offset="1" />
    </linearGradient>
    <clipPath
       id="clipPath9861">
      <path
         d="m -0.209534,-0.964996 1.447614,0 0,1.929794 -1.447614,0 0,-1.929794 z"
         id="path9863" />
    </clipPath>
    <clipPath
       id="clipPath9851">
      <path
         d="m 417.087,282.726 c 0,-6.012 9.882,-10.908 21.987,-10.908 l 0,0 c 12.105,0 21.987,4.896 21.987,10.908 l 0,0 c 0,6.021 -9.882,10.926 -21.987,10.926 l 0,0 c -12.105,0 -21.987,-4.905 -21.987,-10.926 m 1.701,0 c 0,5.796 9.108,10.539 20.286,10.539 l 0,0 c 11.178,0 20.286,-4.743 20.286,-10.539 l 0,0 c 0,-5.796 -9.108,-10.521 -20.286,-10.521 l 0,0 c -11.178,0 -20.286,4.725 -20.286,10.521"
         id="path9853" />
    </clipPath>
    <clipPath
       id="clipPath9839">
      <path
         d="m 0,0 595.275,0 0,841.887 L 0,841.887 0,0 z"
         id="path9841" />
    </clipPath>
    <clipPath
       id="clipPath9825">
      <path
         d="m 97.29,184.896 c 0,0 -11.997,0 -11.997,-12.006 l 0,0 0,-54.054 c 0,0 0,-12.006 11.997,-12.006 l 0,0 99.279,0 c 0,0 11.997,0 11.997,12.006 l 0,0 0,54.054 c 0,0 0,12.006 -11.997,12.006 l 0,0 -99.279,0 z"
         id="path9827" />
    </clipPath>
    <clipPath
       id="clipPath9813">
      <path
         d="m 0,0 595.275,0 0,841.887 L 0,841.887 0,0 z"
         id="path9815" />
    </clipPath>
    <clipPath
       id="clipPath9799">
      <path
         d="m 97.038,506.997 c 0,0 -11.997,0 -11.997,-12.006 l 0,0 0,-55.017 c 0,0 0,-11.997 11.997,-11.997 l 0,0 99.306,0 c 0,0 12.006,0 12.006,11.997 l 0,0 0,55.017 c 0,0 0,12.006 -12.006,12.006 l 0,0 -99.306,0 z"
         id="path9801" />
    </clipPath>
    <clipPath
       id="clipPath9787">
      <path
         d="m 0,0 595.275,0 0,841.887 L 0,841.887 0,0 z"
         id="path9789" />
    </clipPath>
    <clipPath
       id="clipPath9773">
      <path
         d="m 370.584,596.997 c 0,0 -11.997,0 -11.997,-12.006 l 0,0 0,-52.272 c 0,0 0,-11.997 11.997,-11.997 l 0,0 99.306,0 c 0,0 11.997,0 11.997,11.997 l 0,0 0,52.272 c 0,0 0,12.006 -11.997,12.006 l 0,0 -99.306,0 z"
         id="path9775" />
    </clipPath>
    <clipPath
       id="clipPath9693">
      <path
         d="m 0,0 595.275,0 0,841.887 L 0,841.887 0,0 z"
         id="path9695" />
    </clipPath>
    <clipPath
       id="clipPath8849">
      <path
         d="m 85.041,656.55 68.931,0 0,41.562 -68.931,0 0,-41.562 z"
         id="path8851" />
    </clipPath>
    <clipPath
       id="clipPath8821">
      <path
         d="m 0,0 595.275,0 0,841.887 L 0,841.887 0,0 z"
         id="path8823" />
    </clipPath>
    <clipPath
       id="clipPath8693">
      <path
         d="m 85.041,574.101 102.096,0 0,21.609 -102.096,0 0,-21.609 z"
         id="path8695" />
    </clipPath>
    <clipPath
       id="clipPath8645">
      <path
         d="m 83.772,302.418 99.144,0 0,40.338 -99.144,0 0,-40.338 z"
         id="path8647" />
    </clipPath>
    <clipPath
       id="clipPath8529">
      <path
         d="m 402.786,473.598 79.101,0 0,21.366 -79.101,0 0,-21.366 z"
         id="path8531" />
    </clipPath>
    <clipPath
       id="clipPath8441">
      <path
         d="m 411.345,129.132 70.542,0 0,53.469 -70.542,0 0,-53.469 z"
         id="path8443" />
    </clipPath>
    <clipPath
       id="clipPath6157">
      <path
         d="m 0,0 595.275,0 0,841.887 L 0,841.887 0,0 z"
         id="path6159" />
    </clipPath>
    <clipPath
       id="clipPath6143">
      <path
         d="m 3.938,756.378 591.338,0 0,85.509 -591.338,0 0,-85.509 z"
         id="path6145" />
    </clipPath>
    <clipPath
       id="clipPath6129">
      <path
         d="m 0,756.378 0,85.509 0,-85.509 z"
         id="path6131" />
    </clipPath>
    <clipPath
       id="clipPath16999">
      <path
         d="m 113.386,297.271 51.523,0 0,35.517 -51.523,0 0,-35.517 z"
         id="path17001" />
    </clipPath>
    <clipPath
       id="clipPath16987">
      <path
         d="m 0,0 595.276,0 0,841.89 L 0,841.89 0,0 z"
         id="path16989" />
    </clipPath>
    <clipPath
       id="clipPath16975">
      <path
         d="m 395.675,332.298 c 0,0 -12.001,0 -12.001,-12 l 0,0 0,-54.98 c 0,0 0,-12 12.001,-12 l 0,0 102.311,0 c 0,0 12,0 12,12 l 0,0 0,54.98 c 0,0 0,12 -12,12 l 0,0 -102.311,0 z"
         id="path16977" />
    </clipPath>
    <clipPath
       id="clipPath16951">
      <path
         d="m 0,0 595.276,0 0,841.89 L 0,841.89 0,0 z"
         id="path16953" />
    </clipPath>
    <clipPath
       id="clipPath16903">
      <path
         d="m 115.409,416.126 91.87,0 0,18.949 -91.87,0 0,-18.949 z"
         id="path16905" />
    </clipPath>
    <clipPath
       id="clipPath16865">
      <path
         d="m 0,0 595.276,0 0,841.89 L 0,841.89 0,0 z"
         id="path16867" />
    </clipPath>
    <clipPath
       id="clipPath16841">
      <path
         d="m 0,0 595.276,0 0,841.89 L 0,841.89 0,0 z"
         id="path16843" />
    </clipPath>
    <clipPath
       id="clipPath16827">
      <path
         d="m 125.635,205.97 c 0,0 -11.999,0 -11.999,-11.999 l 0,0 0,-55.075 c 0,0 0,-12 11.999,-12 l 0,0 102.493,0 c 0,0 12,0 12,12 l 0,0 0,55.075 c 0,0 0,11.999 -12,11.999 l 0,0 -102.493,0 z"
         id="path16829" />
    </clipPath>
    <clipPath
       id="clipPath16815">
      <path
         d="m 0,0 595.276,0 0,841.89 L 0,841.89 0,0 z"
         id="path16817" />
    </clipPath>
    <clipPath
       id="clipPath16801">
      <path
         d="m 125.635,561.577 c 0,0 -11.999,0 -11.999,-12 l 0,0 0,-53.511 c 0,0 0,-12 11.999,-12 l 0,0 100.158,0 c 0,0 12.001,0 12.001,12 l 0,0 0,53.511 c 0,0 0,12 -12.001,12 l 0,0 -100.158,0 z"
         id="path16803" />
    </clipPath>
    <clipPath
       id="clipPath16789">
      <path
         d="m 0,0 595.276,0 0,841.89 L 0,841.89 0,0 z"
         id="path16791" />
    </clipPath>
    <clipPath
       id="clipPath16775">
      <path
         d="m 397.512,701.739 c 0,0 -12.001,0 -12.001,-12 l 0,0 0,-54.661 c 0,0 0,-12 12.001,-12 l 0,0 100.724,0 c 0,0 12,0 12,12 l 0,0 0,54.661 c 0,0 0,12 -12,12 l 0,0 -100.724,0 z"
         id="path16777" />
    </clipPath>
    <clipPath
       id="clipPath16629">
      <path
         d="m 0,0 595.276,0 0,841.89 L 0,841.89 0,0 z"
         id="path16631" />
    </clipPath>
    <clipPath
       id="clipPath16471">
      <path
         d="m 247.181,173.57 59.494,0 0,28.824 -59.494,0 0,-28.824 z"
         id="path16473" />
    </clipPath>
    <clipPath
       id="clipPath16379">
      <path
         d="m 456.697,511.664 53.539,0 0,52.43 -53.539,0 0,-52.43 z"
         id="path16381" />
    </clipPath>
    <clipPath
       id="clipPath16337">
      <path
         d="m 0,0 595.276,0 0,841.89 L 0,841.89 0,0 z"
         id="path16339" />
    </clipPath>
    <clipPath
       id="clipPath16289">
      <path
         d="m 127.775,695.205 c 3.841,-1.745 6.536,-5.831 6.536,-10.591 l 0,0 c 0,-4.76 -2.695,-8.845 -6.535,-10.591 l 0,0 11.201,0 0,21.182 -11.202,0 z"
         id="path16291" />
    </clipPath>
    <clipPath
       id="clipPath16273">
      <path
         d="m 113.386,671.197 107.271,0 0,26.834 -107.271,0 0,-26.834 z"
         id="path16275" />
    </clipPath>
    <clipPath
       id="clipPath15153">
      <path
         d="m 0,0 595.276,0 0,841.89 L 0,841.89 0,0 z"
         id="path15155" />
    </clipPath>
    <clipPath
       id="clipPath15139">
      <path
         d="m 0,756.378 595.275,0 0,85.512 -595.275,0 0,-85.512 z"
         id="path15141" />
    </clipPath>
    <clipPath
       id="clipPath16903-8">
      <path
         d="m 115.409,416.126 91.87,0 0,18.949 -91.87,0 0,-18.949 z"
         id="path16905-7" />
    </clipPath>
  </defs>
  <metadata
     id="metadata7">
    <rdf:RDF>
      <cc:Work
         rdf:about="">
        <dc:format>image/svg+xml</dc:format>
        <dc:type
           rdf:resource="http://purl.org/dc/dcmitype/StillImage" />
        <dc:title></dc:title>
      </cc:Work>
    </rdf:RDF>
  </metadata>
  <g
     transform="translate(-194.72136,-34.334345)"
     id="layer1">
    <g
       transform="matrix(3.7008817,0,0,-3.7008817,-232.3937,1644.4936)"
       id="g16899">
      <g
         clip-path="url(#clipPath16903-8)"
         id="g16901">
        <g
           transform="translate(144.4292,411.9578)"
           id="g16907">
          <path
             d="m 0,0 1.238,0 0,-0.31 -1.238,0 0,-1.047 1.238,0 0,-0.286 -1.524,0 0,2.952 1.524,0 0,-0.285 L 0,1.024 0,0 z m -3.69,-1.643 -0.286,0 0,2.952 0.286,0 0,-1.309 1.405,0 0,1.309 0.285,0 0,-2.952 -0.285,0 0,1.357 -1.405,0 0,-1.357 z m 8.761,2.952 -0.167,0 -1.143,-2.952 0.31,0 0.357,0.929 0.643,0 0,0.262 -0.548,0 0.548,1.476 0,0.285 z m -11.118,-2.952 -0.286,0 0,2.667 -0.595,0 0,0.285 1.476,0 0,-0.285 -0.595,0 0,-2.667 z m 17.927,0 -0.286,0 0,2.667 -0.571,0 0,0.285 1.452,0 0,-0.285 -0.595,0 0,-2.667 z m -3.857,2.667 0,-2.667 -0.286,0 0,2.952 0.81,0 c 0.166,0 0.309,0 0.404,-0.047 C 9.07,1.238 9.166,1.19 9.237,1.143 9.356,1.047 9.451,0.952 9.523,0.81 9.594,0.667 9.618,0.524 9.618,0.381 9.618,0.143 9.546,-0.048 9.427,-0.214 9.285,-0.381 9.118,-0.476 8.904,-0.476 l 0.714,-1.167 -0.333,0 -0.881,1.429 0.286,0 c 0.19,0 0.333,0.047 0.452,0.166 0.119,0.096 0.167,0.238 0.167,0.429 0,0.095 0,0.19 -0.048,0.262 C 9.237,0.738 9.166,0.81 9.094,0.881 9.047,0.929 8.975,0.976 8.904,1 8.809,1 8.666,1.024 8.451,1.024 l -0.428,0 z m -2.952,-1.738 0,0.262 0.547,0 -0.547,1.476 0,0.285 0.19,0 1.143,-2.952 -0.31,0 -0.357,0.929 -0.666,0 z M 16.474,1.381 C 16.26,1.381 16.07,1.333 15.903,1.262 15.736,1.19 15.57,1.095 15.427,0.952 15.284,0.785 15.165,0.619 15.094,0.452 c -0.096,-0.19 -0.12,-0.381 -0.12,-0.595 0,-0.428 0.143,-0.809 0.429,-1.095 0.286,-0.309 0.643,-0.452 1.071,-0.452 l 0,0.261 c -0.333,0.024 -0.619,0.143 -0.857,0.382 -0.238,0.238 -0.333,0.547 -0.333,0.904 0,0.167 0.024,0.357 0.119,0.524 0.071,0.167 0.19,0.309 0.31,0.429 0.119,0.095 0.238,0.166 0.357,0.214 0.119,0.047 0.261,0.071 0.404,0.071 l 0,0.286 z m 3.072,-3.024 0,2.952 1.452,0 0,-0.285 -1.167,0 0,-1.024 1.167,0 0,-0.31 -1.167,0 0,-1.333 -0.285,0 z m -3.072,-0.047 0,0.261 0.024,0 c 0.333,0 0.595,0.143 0.833,0.382 0.239,0.238 0.358,0.547 0.358,0.904 0,0.333 -0.119,0.619 -0.358,0.857 -0.238,0.262 -0.523,0.381 -0.857,0.381 l 0,0.286 c 0.215,0 0.405,-0.048 0.572,-0.119 0.166,-0.072 0.333,-0.191 0.476,-0.333 0.167,-0.144 0.262,-0.31 0.333,-0.477 0.095,-0.19 0.119,-0.381 0.119,-0.595 0,-0.214 -0.024,-0.405 -0.095,-0.571 -0.071,-0.191 -0.167,-0.333 -0.286,-0.476 -0.142,-0.167 -0.309,-0.286 -0.5,-0.381 -0.19,-0.072 -0.404,-0.119 -0.619,-0.119 m 8.261,2.976 C 24.64,1.309 24.545,1.309 24.45,1.309 l -0.548,0 0,-2.952 0.643,0 c 0.071,0 0.119,0 0.19,0.024 l 0,0.262 -0.143,0 -0.404,0 0,1.119 0.404,0 c 0.048,0 0.096,0 0.143,-0.024 l 0,0.333 C 24.616,0.048 24.497,0.048 24.354,0.048 l -0.166,0 0,0.976 0.238,0 c 0.119,0 0.214,0 0.309,-0.024 l 0,0.286 z M 27.473,0 l 1.238,0 0,-0.31 -1.238,0 0,-1.047 1.238,0 0,-0.286 -1.524,0 0,2.952 1.524,0 0,-0.285 -1.238,0 0,-1.024 z m -2.738,-1.619 0,0.262 c 0.167,0.024 0.286,0.071 0.381,0.143 0.119,0.095 0.167,0.214 0.167,0.405 0,0.19 -0.048,0.333 -0.167,0.428 -0.095,0.071 -0.214,0.119 -0.381,0.119 l 0,0.333 c 0.096,0.024 0.167,0.048 0.215,0.096 0.119,0.071 0.166,0.19 0.166,0.381 0,0.166 -0.047,0.285 -0.166,0.357 C 24.902,0.952 24.831,0.976 24.735,1 l 0,0.286 C 24.926,1.262 25.069,1.214 25.188,1.119 25.331,1 25.426,0.81 25.426,0.524 25.426,0.405 25.402,0.286 25.331,0.19 25.283,0.095 25.212,0 25.092,-0.048 c 0.167,-0.071 0.286,-0.166 0.358,-0.285 0.095,-0.119 0.143,-0.262 0.143,-0.429 0,-0.309 -0.096,-0.524 -0.262,-0.667 -0.143,-0.118 -0.334,-0.19 -0.596,-0.19 m 6.643,2.928 -0.191,0 -1.143,-2.952 0.31,0 0.357,0.929 0.667,0 0,0.262 -0.572,0 0.548,1.476 0.024,0 0,0.285 z m 9.76,-1.857 0,-1.095 -0.285,0 0,1.095 -0.953,1.857 0.334,0 0.761,-1.523 0.762,1.523 0.31,0 -0.929,-1.857 z m -2.928,-1.095 -0.286,0 0,2.667 -0.571,0 0,0.285 1.452,0 0,-0.285 -0.595,0 0,-2.667 z m -4.166,2.952 0.285,0 0,-1.857 0,-0.333 c 0.024,-0.071 0.048,-0.143 0.072,-0.19 0.048,-0.119 0.119,-0.191 0.238,-0.262 0.095,-0.072 0.214,-0.096 0.333,-0.096 0.214,0 0.381,0.072 0.5,0.239 0.095,0.143 0.167,0.381 0.167,0.69 l 0,1.809 0.286,0 0,-1.88 c 0,-0.381 -0.096,-0.667 -0.239,-0.858 -0.142,-0.166 -0.38,-0.261 -0.69,-0.261 -0.333,0 -0.571,0.071 -0.738,0.261 -0.143,0.191 -0.214,0.477 -0.214,0.858 l 0,1.88 z m -2.666,-2.023 0,0.262 0.547,0 -0.547,1.476 0,0.285 0.166,0 1.143,-2.952 -0.31,0 -0.357,0.929 -0.642,0 z"
             id="path16909"
             style="fill:#6a1c44;fill-opacity:1;fill-rule:evenodd;stroke:none" />
        </g>
        <g
           transform="translate(144.4292,411.9578)"
           id="g16911">
          <path
             d="m 0,0 1.238,0 0,-0.31 -1.238,0 0,-1.047 1.238,0 0,-0.286 -1.524,0 0,2.952 1.524,0 0,-0.286 L 0,1.023 0,0 z m -3.69,-1.643 -0.286,0 0,2.952 0.286,0 0,-1.309 1.405,0 0,1.309 0.285,0 0,-2.952 -0.285,0 0,1.357 -1.405,0 0,-1.357 z m 8.761,2.952 0,-0.286 -0.548,-1.475 0.548,0 0,-0.262 -0.643,0 -0.357,-0.929 -0.31,0 1.143,2.952 0.167,0 z m -11.118,-2.952 -0.286,0 0,2.666 -0.595,0 0,0.286 1.476,0 0,-0.286 -0.595,0 0,-2.666 z m 17.927,0 -0.286,0 0,2.666 -0.571,0 0,0.286 1.452,0 0,-0.286 -0.595,0 0,-2.666 z m -3.857,2.666 0,-2.666 -0.286,0 0,2.952 0.81,0 c 0.166,0 0.309,0 0.404,-0.047 C 9.07,1.238 9.166,1.19 9.237,1.143 9.356,1.047 9.451,0.952 9.523,0.809 9.594,0.666 9.618,0.524 9.618,0.381 9.618,0.143 9.546,-0.048 9.427,-0.214 9.285,-0.381 9.118,-0.476 8.904,-0.476 l 0.714,-1.167 -0.333,0 -0.881,1.429 0.286,0 c 0.19,0 0.333,0.047 0.452,0.166 0.119,0.096 0.167,0.238 0.167,0.429 0,0.095 0,0.19 -0.048,0.262 C 9.237,0.738 9.166,0.809 9.094,0.881 9.047,0.928 8.975,0.976 8.904,1 8.809,1 8.666,1.023 8.451,1.023 l -0.428,0 z m -2.952,-1.737 0,0.262 0.547,0 -0.547,1.475 0,0.286 0.19,0 1.143,-2.952 -0.31,0 -0.357,0.929 -0.666,0 z m 11.403,2.095 0,-0.286 C 16.331,1.095 16.189,1.071 16.07,1.023 15.951,0.976 15.832,0.905 15.713,0.809 15.593,0.69 15.474,0.548 15.403,0.381 15.308,0.214 15.284,0.024 15.284,-0.143 c 0,-0.357 0.095,-0.666 0.333,-0.905 0.238,-0.238 0.524,-0.357 0.857,-0.381 l 0,-0.261 c -0.428,0 -0.785,0.143 -1.071,0.452 -0.286,0.286 -0.429,0.667 -0.429,1.095 0,0.214 0.024,0.405 0.12,0.595 0.071,0.167 0.19,0.333 0.333,0.5 0.143,0.143 0.309,0.238 0.476,0.31 0.167,0.071 0.357,0.119 0.571,0.119 z m 3.072,-3.024 0,2.952 1.452,0 0,-0.286 -1.167,0 0,-1.023 1.167,0 0,-0.31 -1.167,0 0,-1.333 -0.285,0 z m -3.072,-0.047 0,0.261 0.024,0 c 0.333,0 0.595,0.143 0.833,0.381 0.239,0.239 0.358,0.548 0.358,0.905 0,0.333 -0.119,0.619 -0.358,0.857 -0.238,0.262 -0.523,0.381 -0.857,0.381 l 0,0.286 c 0.215,0 0.405,-0.048 0.572,-0.119 0.166,-0.072 0.333,-0.191 0.476,-0.334 0.167,-0.143 0.262,-0.309 0.333,-0.476 0.095,-0.19 0.119,-0.381 0.119,-0.595 0,-0.214 -0.024,-0.405 -0.095,-0.571 -0.071,-0.191 -0.167,-0.334 -0.286,-0.476 -0.143,-0.167 -0.309,-0.286 -0.5,-0.381 -0.19,-0.072 -0.404,-0.119 -0.619,-0.119 z m 8.261,2.976 0,-0.286 c -0.095,0.023 -0.19,0.023 -0.309,0.023 l -0.238,0 0,-0.975 0.166,0 c 0.143,0 0.262,0 0.381,0.023 l 0,-0.333 c -0.047,0.024 -0.095,0.024 -0.143,0.024 l -0.404,0 0,-1.119 0.404,0 0.143,0 0,-0.262 c -0.071,-0.024 -0.119,-0.024 -0.19,-0.024 l -0.643,0 0,2.952 0.548,0 c 0.095,0 0.19,0 0.285,-0.023 z M 27.473,0 l 1.238,0 0,-0.31 -1.238,0 0,-1.047 1.238,0 0,-0.286 -1.524,0 0,2.952 1.524,0 0,-0.286 -1.238,0 0,-1.023 z m -2.738,-1.619 0,0.262 c 0.167,0.024 0.286,0.071 0.381,0.143 0.119,0.095 0.167,0.214 0.167,0.405 0,0.19 -0.048,0.333 -0.167,0.428 -0.095,0.071 -0.214,0.119 -0.381,0.119 l 0,0.333 c 0.096,0.024 0.167,0.048 0.215,0.096 0.119,0.071 0.166,0.19 0.166,0.381 0,0.166 -0.047,0.285 -0.166,0.357 C 24.902,0.952 24.831,0.976 24.735,1 l 0,0.286 C 24.926,1.262 25.069,1.214 25.188,1.119 25.331,1 25.426,0.809 25.426,0.524 25.426,0.405 25.402,0.286 25.331,0.19 25.283,0.095 25.212,0 25.092,-0.048 c 0.167,-0.071 0.286,-0.166 0.358,-0.285 0.095,-0.119 0.143,-0.262 0.143,-0.429 0,-0.309 -0.096,-0.524 -0.262,-0.667 -0.143,-0.118 -0.334,-0.19 -0.596,-0.19 z m 6.643,2.928 0,-0.286 -0.024,0 -0.548,-1.475 0.572,0 0,-0.262 -0.667,0 -0.357,-0.929 -0.31,0 1.143,2.952 0.191,0 z m 9.76,-1.857 0,-1.095 -0.285,0 0,1.095 -0.953,1.857 0.334,0 0.761,-1.523 0.762,1.523 0.31,0 -0.929,-1.857 z m -2.928,-1.095 -0.286,0 0,2.666 -0.571,0 0,0.286 1.452,0 0,-0.286 -0.595,0 0,-2.666 z m -4.166,2.952 0.285,0 0,-1.857 0,-0.333 c 0.024,-0.071 0.048,-0.143 0.072,-0.19 0.048,-0.119 0.119,-0.191 0.238,-0.262 0.095,-0.072 0.214,-0.096 0.333,-0.096 0.214,0 0.381,0.072 0.5,0.239 0.095,0.142 0.167,0.381 0.167,0.69 l 0,1.809 0.286,0 0,-1.88 c 0,-0.381 -0.096,-0.667 -0.239,-0.858 -0.142,-0.166 -0.38,-0.261 -0.69,-0.261 -0.333,0 -0.571,0.071 -0.738,0.261 -0.143,0.191 -0.214,0.477 -0.214,0.858 l 0,1.88 z m -2.666,-2.023 0,0.262 0.547,0 -0.547,1.475 0,0.286 0.166,0 1.143,-2.952 -0.31,0 -0.357,0.929 -0.642,0 z"
             id="path16913"
             style="fill:none;stroke:#6a1c44;stroke-width:0.147;stroke-linecap:butt;stroke-linejoin:miter;stroke-miterlimit:2.61299992;stroke-opacity:1;stroke-dasharray:none" />
        </g>
        <g
           transform="translate(142.8818,421.8615)"
           id="g16915">
          <path
             d="m 0,0 c 0,-1.619 1.238,-2.428 2.833,-2.523 l 0,-0.929 -2.619,0 c -2.666,0.024 -4.856,1.428 -5.094,4.071 l 0,3.976 c 0.214,2.523 2.19,3.856 4.713,4.047 l 3,0 0,-0.952 C 1.238,7.523 0,6.166 0,4.547 L 0,0 z m 2.833,7.69 0.31,0 0.285,0 1.238,0 c 0.548,0 1,-0.453 1,-1 l 0,-8.118 c 0,-0.167 0,-0.572 -0.262,-0.833 -0.19,-0.191 -0.428,-0.262 -0.738,-0.262 l -1.238,0 -0.285,0 -0.31,0 0,-0.929 5.38,0 c 0.453,0 0.81,0.119 1.024,0.357 0.286,0.262 0.405,0.69 0.405,1.238 l 0,0.143 c 0.024,0.833 0.024,4.261 0,12.665 0,0.167 -0.048,1.595 -1.309,1.595 l -1.072,0 -0.405,0 -0.023,0 c -1.072,0 -1.095,-1.095 -1.095,-1.143 l 0,-2.761 -2.905,0 0,-0.952 z"
             id="path16917"
             style="fill:#6a1c44;fill-opacity:1;fill-rule:evenodd;stroke:none" />
        </g>
        <g
           transform="translate(157.0708,430.0508)"
           id="g16919">
          <path
             d="m 0,0 0,-0.024 c 0,-0.19 0,-0.309 0.071,-0.381 0.119,-0.119 0.453,-0.19 0.953,-0.19 l 2.476,0 c 0.809,0 1.476,-0.667 1.476,-1.5 l 0,-1.595 c 0,-0.476 -0.381,-0.238 -0.858,-0.262 l -3.785,0 c -1.666,-0.024 -3.047,-1.357 -3.166,-3.023 l 0,-1.667 c 0.095,-1.595 1.381,-2.88 3,-3 l 2.714,0 c 0.333,0 0.571,0.096 0.666,0.262 0.072,0.12 0.072,0.262 0,0.381 -0.119,0.215 -0.357,0.334 -0.619,0.334 l -0.071,0 c -0.881,0.023 -1.548,0.714 -1.548,1.571 l 0,1.476 c 0,0.881 0.691,1.595 1.572,1.619 l 1.285,0 c 0.024,0 0.31,-0.024 0.548,-0.238 0.166,-0.167 0.262,-0.429 0.262,-0.738 l 0.023,-3.762 c 0,-0.095 0.048,-0.881 1,-0.905 l 1.952,0 c 0.215,0 0.381,0.072 0.5,0.191 0.286,0.286 0.286,0.952 0.286,1.571 l -0.024,0.357 0,4.69 0,0.762 c 0,2.833 -1.666,4.5 -4.499,4.523 l -3.19,0 C 0,0.452 0,0.119 0,0"
             id="path16921"
             style="fill:#6a1c44;fill-opacity:1;fill-rule:evenodd;stroke:none" />
        </g>
        <g
           transform="translate(185.9009,430.0508)"
           id="g16923">
          <path
             d="m 0,0 0,-0.024 c 0,-0.19 0,-0.309 0.071,-0.381 0.119,-0.119 0.453,-0.19 0.953,-0.19 l 2.476,0 c 0.809,0 1.475,-0.667 1.475,-1.5 l 0,-1.595 c 0,-0.476 -0.381,-0.238 -0.857,-0.262 l -3.785,0 c -1.666,-0.024 -3.071,-1.357 -3.166,-3.023 l 0,-1.667 c 0.095,-1.595 1.381,-2.88 2.999,-3 l 2.715,0 c 0.452,0 0.714,0.167 0.714,0.429 0,0.262 -0.262,0.548 -0.667,0.548 l -0.071,0 c -0.881,0.023 -1.548,0.714 -1.548,1.571 l 0,1.476 c 0,0.881 0.691,1.595 1.572,1.619 l 1.285,0 c 0.024,0 0.31,-0.024 0.548,-0.238 0.166,-0.167 0.261,-0.429 0.261,-0.738 l 0.024,-3.762 c 0,-0.095 0.048,-0.881 1,-0.905 l 1.952,0 c 0.214,0 0.381,0.072 0.5,0.191 0.286,0.286 0.286,0.952 0.286,1.571 l -0.024,0.357 0,4.69 0,0.762 c 0,2.833 -1.666,4.5 -4.5,4.523 l -3.189,0 C 0,0.452 0,0.119 0,0"
             id="path16925"
             style="fill:#6a1c44;fill-opacity:1;fill-rule:evenodd;stroke:none" />
        </g>
        <g
           transform="translate(179.1395,430.5272)"
           id="g16927">
          <path
             d="m 0,0 c -0.809,-0.024 -1.452,-0.69 -1.476,-1.5 l 0,-0.024 c 0,-0.071 0,-0.238 -0.119,-0.333 -0.095,-0.19 -0.309,-0.309 -0.548,-0.309 -0.261,0 -0.476,0.142 -0.571,0.357 l 0.024,-0.048 c -0.072,0.095 -0.119,0.191 -0.119,0.333 l 0,0.024 0,-0.024 0,0.024 C -2.833,-0.667 -3.523,0 -4.333,0 l -0.738,0 c -0.761,0 -1.404,-0.571 -1.523,-1.333 l 0,-0.024 0,-0.024 0,-0.048 c 0,-0.071 0,-0.19 -0.072,-0.333 -0.095,-0.214 -0.333,-0.357 -0.595,-0.357 -0.309,0 -0.547,0.167 -0.619,0.405 -0.048,0.071 -0.071,0.166 -0.071,0.262 l 0,0.071 C -8.023,-0.643 -8.642,-0.024 -9.404,0 l -0.737,0 c -0.81,-0.024 -1.453,-0.69 -1.477,-1.5 l 0,-9.213 c 0.072,-0.786 0.738,-1.405 1.524,-1.405 l 0.619,0 c 0.833,0 1.524,0.691 1.524,1.524 l 0,5.952 0,-0.024 0,0.166 c 0.047,0.31 0.309,0.5 0.69,0.477 0.333,0 0.667,-0.215 0.667,-0.596 l 0,-0.523 0,-0.024 0,-5.5 c 0.047,-0.809 0.714,-1.452 1.523,-1.452 l 0.738,0 c 0.81,0 1.5,0.667 1.524,1.5 l 0,5.856 0,0.096 0,0.143 c 0.024,0.285 0.309,0.5 0.666,0.5 0.358,-0.024 0.691,-0.215 0.691,-0.596 l 0,-0.523 c 0,0 -0.024,-0.096 -0.024,-0.119 l 0,-5.405 c 0.048,-0.809 0.714,-1.452 1.524,-1.452 l 0.642,0 c 0.834,0 1.524,0.691 1.524,1.524 l 0,9.165 C 2.167,-0.643 1.524,-0.024 0.738,0 L 0,0 z"
             id="path16929"
             style="fill:#6a1c44;fill-opacity:1;fill-rule:evenodd;stroke:none" />
        </g>
        <g
           transform="translate(199.3991,430.5272)"
           id="g16931">
          <path
             d="m 0,0 c -1.69,-0.024 -3.047,-1.381 -3.047,-3.071 l 0,-0.976 c 0,-1.595 1.262,-2.31 2.857,-2.428 l 0.5,0 0.785,0 c 1.238,0 2.524,-0.929 2.524,-2.453 0,-1.666 -1,-2.119 -2.548,-2.119 l -0.142,0 -0.143,0 -2.929,0 c -0.404,0 -0.547,-0.285 -0.547,-0.547 -0.024,-0.238 0.119,-0.5 0.357,-0.524 l 6.856,0 c 1.596,0.048 2.953,1.452 2.953,3.071 l 0,1.5 C 7.356,-5.904 5.976,-4.5 4.452,-4.5 l -2.809,0.024 c -0.524,0 -1.548,-0.143 -1.548,1.405 0,1.571 1.024,2.047 1.429,2.095 l 0.381,0 2.357,0 c 0.595,0 0.904,0.238 0.904,0.476 0,0.262 -0.309,0.5 -0.904,0.5 L 0,0 z"
             id="path16933"
             style="fill:#6a1c44;fill-opacity:1;fill-rule:evenodd;stroke:none" />
        </g>
        <g
           transform="translate(122.0508,433.5268)"
           id="g16935">
          <path
             d="m 0,0 c 1,0 1.952,-0.19 2.833,-0.571 l 0,1.547 C 2.404,1.024 1.952,1.047 1.476,1.047 l -8.118,0 0,-0.88 1.19,0 c 0.857,0 1,-0.119 1,-3.595 l 0,-11.047 c 0,-0.261 -0.047,-0.428 -0.381,-0.428 l -1.214,0 0,-0.857 7.261,0 c 0.572,0 1.119,0.024 1.619,0.095 l 0,1.428 c -0.952,-0.357 -2.047,-0.523 -3.214,-0.499 -0.881,0 -1,0.071 -1,5.713 l 0,8.666 C -1.381,0 -1.238,0 0,0 m 2.833,-14.237 c 2.547,0.905 4.214,3.024 4.214,6.143 0,3.904 -1.786,6.451 -4.214,7.523 l 0,1.547 c 5.095,-0.547 7.523,-4.142 7.523,-7.952 0,-3.237 -1.714,-7.951 -7.523,-8.689 l 0,1.428 z"
             id="path16937"
             style="fill:#6a1c44;fill-opacity:1;fill-rule:evenodd;stroke:none" />
        </g>
        <g
           transform="translate(133.1924,433.5505)"
           id="g16939">
          <path
             d="M 0,0 C -0.048,0.571 0.167,1.524 0.976,1.524 1.809,1.524 2.024,0.571 1.952,0 l -0.5,-6.023 C 1.429,-6.237 1.309,-6.856 0.976,-6.856 0.667,-6.856 0.524,-6.237 0.5,-6.023 L 0,0 z"
             id="path16941"
             style="fill:#6a1c44;fill-opacity:1;fill-rule:evenodd;stroke:none" />
        </g>
        <path
           d="m 115.599,411.672 19.522,0 0,-0.19 -19.522,0 0,0.19 z"
           id="path16943"
           style="fill:#6a1c44;fill-opacity:1;fill-rule:evenodd;stroke:none" />
        <path
           d="m 187.758,411.672 19.522,0 0,-0.19 -19.522,0 0,0.19 z"
           id="path16945"
           style="fill:#6a1c44;fill-opacity:1;fill-rule:evenodd;stroke:none" />
      </g>
    </g>
  </g>
</svg>
