<svg width="280" height="95" viewBox="0 0 280 95" fill="none" xmlns="http://www.w3.org/2000/svg">
<g clip-path="url(#clip0_3317_5046)">
<path d="M247.207 52.3183L253.446 16.0979H277.161L270.762 52.3183H247.207Z" fill="#E1261D"/>
<path d="M53.5185 22.5791L49.5794 46.6961H67.9055C71.3047 46.4864 72.7544 45.2881 73.2943 42.3421L75.9537 27.8919C76.6936 24.4965 74.574 22.689 71.2747 22.5791H53.5185ZM25.2246 52.3184L31.5033 16.1979H87.3313C97.4291 16.088 100.728 20.9813 99.1388 28.7307L96.0594 44.6689C94.6797 49.0229 91.3104 51.9989 83.862 52.3184H25.2246Z" fill="#E1261D"/>
<path d="M116.475 38.4074H136.571L129.342 21.6204L116.475 38.4074ZM98.9288 52.3184L126.363 16.2078H151.138L166.554 52.3184H142.629L139.23 44.569H112.326L106.477 52.3184H98.9288Z" fill="#E1261D"/>
<path d="M199.527 22.2594L197.478 34.1631H212.075C215.694 34.1631 218.883 32.6752 219.523 28.8504C220.053 23.9671 217.393 22.2594 212.934 22.2594H199.537H199.527ZM227.711 16.2077C239.619 16.4174 242.708 19.5032 242.388 27.7819C241.858 37.6584 233.35 39.2562 225.582 38.8268L238.659 52.2085H214.834L203.566 39.2462H196.868L193.998 52.3083H171.453L178.042 16.1877H227.711V16.2077Z" fill="#E1261D"/>
<path d="M260.874 94.91H263.244L263.653 92.6132H261.284L260.874 94.91ZM254.525 94.91H257.035L257.535 92.0739L263.004 86.7512H259.974L256.635 90.0866L254.475 86.7512H251.446L255.035 92.0739L254.535 94.91H254.525ZM238.709 94.91H241.208L241.578 92.7929H245.517C246.297 92.7929 246.497 93.0725 246.347 93.9314L246.177 94.91H248.677L248.917 93.5219C249.157 92.1838 248.587 91.8542 247.867 91.7144V91.6944C249.067 91.4248 249.427 90.7857 249.627 89.6872L249.716 89.1679C249.976 87.6999 249.627 86.7412 247.697 86.7412H240.139L238.699 94.9L238.709 94.91ZM242.288 88.7784H246.207C246.997 88.7784 247.337 88.9182 247.207 89.6372L247.157 89.9069C247.057 90.4961 246.757 90.7657 246.077 90.7657H241.938L242.288 88.7784ZM228.781 90.3862C228.961 89.3676 229.321 88.7485 230.641 88.7485H233.58C234.9 88.7485 235.04 89.3676 234.86 90.3862L234.7 91.265C234.49 92.4534 234.16 92.9028 232.98 92.9028H229.771C228.581 92.9028 228.421 92.4534 228.621 91.265L228.781 90.3862ZM225.912 92.0439C225.492 94.4307 226.731 94.9999 228.991 94.9999H233.01C235.27 94.9999 236.709 94.4407 237.129 92.0439L237.559 89.6073C237.979 87.2205 236.739 86.6513 234.48 86.6513H230.461C228.201 86.6513 226.761 87.2106 226.342 89.6073L225.912 92.0439ZM215.464 88.7784H218.983L217.903 94.91H220.413L221.493 88.7784H225.012L225.372 86.7512H215.824L215.464 88.7784ZM202.937 92.8029C202.627 94.5705 203.466 94.9999 205.746 94.9999H208.785C212.115 94.9999 212.924 94.6404 213.314 92.4434C213.734 90.0666 212.874 89.827 208.975 89.837C206.286 89.8469 205.986 89.827 206.106 89.1179C206.186 88.6785 206.606 88.4888 207.166 88.4888H209.945C211.095 88.4888 211.125 88.7385 211.015 89.3376H213.514L213.564 89.078C213.814 87.65 213.714 86.6713 210.835 86.6713H207.336C204.176 86.6713 203.836 87.8097 203.576 89.2877C203.226 91.295 203.576 91.7444 207.336 91.7444C210.565 91.7444 210.855 91.7943 210.725 92.5033C210.615 93.1324 210.065 93.1924 209.535 93.1924H206.466C205.746 93.1924 205.406 93.1225 205.546 92.2537H203.037L202.937 92.8229V92.8029ZM184.351 92.0439C183.931 94.4307 185.17 94.9999 187.43 94.9999H190.439C193.259 94.9999 194.498 94.89 194.908 92.5433L195.318 90.2164H189.699L189.399 91.9041H192.519L192.479 92.1438C192.339 92.9327 191.669 93.0326 191.009 93.0326H188.33C187.07 93.0326 186.79 92.733 187.04 91.3249L187.22 90.3063C187.47 88.9082 187.85 88.5987 189.109 88.5987H191.829C192.629 88.5987 193.079 88.6985 192.929 89.5074H195.388L195.438 89.2478C195.718 87.6599 195.508 86.6313 192.659 86.6313H188.89C186.63 86.6313 185.19 87.1906 184.77 89.5873L184.341 92.024L184.351 92.0439ZM170.643 94.91H173.153L174.203 88.9781H174.223L177.882 94.91H181.761L183.201 86.7512H180.691L179.642 92.6831H179.622L175.962 86.7512H172.083L170.643 94.91ZM165.744 94.91H168.244L169.684 86.7512H167.174L165.734 94.91H165.744ZM156.177 88.7784H160.626C161.695 88.7784 162.065 89.078 161.855 90.2464L161.655 91.3549C161.445 92.5133 160.976 92.8229 159.906 92.8229H155.457L156.167 88.7884L156.177 88.7784ZM152.587 94.91H160.146C162.655 94.91 163.675 94.0911 164.035 92.0739L164.475 89.5973C164.835 87.5801 164.095 86.7612 161.595 86.7612H154.037L152.597 94.92L152.587 94.91ZM139.12 94.91H141.62L142.669 88.9781H142.689L146.349 94.91H150.228L151.668 86.7512H149.168L148.118 92.6831H148.098L144.439 86.7512H140.56L139.12 94.91ZM127.963 94.91H137.051L137.401 92.9527H130.822L131.052 91.6445H137.151L137.451 89.9568H131.352L131.582 88.6486H138.01L138.34 86.7512H129.402L127.963 94.91ZM109.547 94.91H112.056L112.426 92.7929H116.365C117.145 92.7929 117.345 93.0725 117.195 93.9314L117.025 94.91H119.524L119.764 93.5219C120.004 92.1838 119.434 91.8542 118.715 91.7144V91.6944C119.914 91.4248 120.274 90.7857 120.474 89.6872L120.564 89.1679C120.824 87.6999 120.474 86.7412 118.545 86.7412H110.986L109.547 94.9V94.91ZM113.136 88.7784H117.055C117.845 88.7784 118.185 88.9182 118.055 89.6372L118.005 89.9069C117.905 90.4961 117.605 90.7657 116.925 90.7657H112.786L113.136 88.7784ZM98.3889 94.91H107.477L107.827 92.9527H101.248L101.478 91.6445H107.577L107.877 89.9568H101.778L102.008 88.6486H108.437L108.767 86.7512H99.8286L98.3889 94.91ZM89.4408 94.91H92.5302L98.3589 86.7512H95.6195L91.3504 92.8129L89.2309 86.7512H86.4915L89.4408 94.91ZM74.674 94.91H83.7621L84.112 92.9527H77.5334L77.7633 91.6445H83.862L84.162 89.9568H78.0633L78.2932 88.6486H84.7219L85.0518 86.7512H76.1137L74.674 94.91ZM61.2969 94.91H63.7963L64.8461 88.9781H64.8661L68.5253 94.91H72.4045L73.8442 86.7512H71.3447L70.2949 92.6831H70.275L66.6157 86.7512H62.7366L61.2969 94.91Z" fill="#24305E"/>
<path d="M0 94.9101H52.7087L54.0184 87.4803H9.48797L23.445 7.5297H278.67L280 0H16.8764L0 94.9101Z" fill="#E1261D"/>
<path d="M45.8302 71.3424H49.2595L48.0997 68.0569L45.8302 71.3424ZM72.4545 69.1154C72.5945 68.3465 72.2346 68.1967 71.3848 68.1967H67.1857L66.8057 70.3238H71.2448C71.9746 70.3238 72.2846 70.0342 72.3945 69.405L72.4445 69.1154H72.4545ZM110.786 69.9243C110.976 68.8358 110.826 68.1767 109.417 68.1767H106.267C104.848 68.1767 104.468 68.8458 104.278 69.9243L104.108 70.863C103.888 72.1313 104.068 72.6106 105.337 72.6106H108.777C110.046 72.6106 110.396 72.1313 110.626 70.863L110.796 69.9243H110.786ZM143.279 69.1254C143.379 68.5362 143.149 68.1967 142.34 68.1967H138.4L138.01 70.3937H142.18C142.809 70.3937 143.119 69.9842 143.219 69.4649L143.279 69.1254ZM157.656 69.1154C157.796 68.3465 157.436 68.1967 156.587 68.1967H152.387L152.007 70.3238H156.447C157.176 70.3238 157.486 70.0342 157.596 69.405L157.646 69.1154H157.656ZM215.674 69.9243C215.864 68.8358 215.714 68.1767 214.304 68.1767H211.155C209.735 68.1767 209.355 68.8458 209.165 69.9243L208.995 70.863C208.775 72.1313 208.955 72.6106 210.225 72.6106H213.664C214.934 72.6106 215.284 72.1313 215.514 70.863L215.684 69.9243H215.674ZM230.361 69.1154C230.501 68.3465 230.131 68.1967 229.291 68.1967H225.092L224.712 70.3238H229.151C229.881 70.3238 230.191 70.0342 230.301 69.405L230.351 69.1154H230.361ZM247.467 68.5162L247.417 68.7958H244.738C244.848 68.1567 244.828 67.8871 243.588 67.8871H240.609C240.009 67.8871 239.559 68.0968 239.469 68.5662C239.339 69.3251 239.659 69.3551 242.538 69.3351C246.717 69.3251 247.637 69.5748 247.187 72.1213C246.767 74.4781 245.907 74.8575 242.338 74.8575H239.089C236.649 74.8575 235.75 74.3982 236.079 72.5008L236.189 71.8916H238.869C238.719 72.8203 239.079 72.9002 239.849 72.9002H243.138C243.708 72.9002 244.298 72.8403 244.418 72.1612C244.548 71.4023 244.248 71.3523 240.788 71.3523C236.749 71.3523 236.379 70.873 236.759 68.716C237.039 67.1381 237.399 65.9098 240.788 65.9098H244.538C247.637 65.9098 247.737 66.9584 247.467 68.4963M233.06 68.6161L232.96 69.1753C232.75 70.3437 232.37 71.0328 231.081 71.3224V71.3424C231.85 71.4922 232.45 71.8417 232.2 73.2797L231.94 74.7677H229.261L229.451 73.7191C229.611 72.8004 229.401 72.5008 228.561 72.5008H224.342L223.942 74.7677H221.263L222.802 66.0196H230.901C232.97 66.0196 233.34 67.0482 233.06 68.6161ZM218.573 69.0954L218.113 71.7019C217.663 74.2584 216.114 74.8675 213.694 74.8675H209.385C206.966 74.8675 205.636 74.2684 206.086 71.7019L206.546 69.0954C206.996 66.5389 208.545 65.9298 210.965 65.9298H215.274C217.693 65.9298 219.023 66.5289 218.573 69.0954ZM202.777 68.5162L202.727 68.7958H200.047C200.157 68.1567 200.137 67.8871 198.897 67.8871H195.918C195.318 67.8871 194.868 68.0968 194.778 68.5662C194.648 69.3251 194.968 69.3551 197.848 69.3351C202.017 69.3251 202.947 69.5748 202.497 72.1213C202.077 74.4781 201.217 74.8575 197.648 74.8575H194.398C191.959 74.8575 191.059 74.3982 191.389 72.5008L191.499 71.8916H194.178C194.028 72.8203 194.388 72.9002 195.158 72.9002H198.448C199.017 72.9002 199.607 72.8403 199.727 72.1612C199.857 71.4023 199.557 71.3523 196.098 71.3523C192.059 71.3523 191.689 70.873 192.069 68.716C192.349 67.1381 192.709 65.9098 196.098 65.9098H199.847C202.947 65.9098 203.047 66.9584 202.777 68.4963M188.18 68.5162L188.13 68.7958H185.45C185.56 68.1567 185.54 67.8871 184.301 67.8871H181.321C180.721 67.8871 180.271 68.0968 180.181 68.5662C180.051 69.3251 180.371 69.3551 183.251 69.3351C187.42 69.3251 188.35 69.5748 187.9 72.1213C187.48 74.4781 186.62 74.8575 183.051 74.8575H179.802C177.362 74.8575 176.462 74.3982 176.792 72.5008L176.902 71.8916H179.582C179.432 72.8203 179.792 72.9002 180.561 72.9002H183.851C184.421 72.9002 185.01 72.8403 185.13 72.1612C185.26 71.4023 184.96 71.3523 181.501 71.3523C177.462 71.3523 177.092 70.873 177.472 68.716C177.752 67.1381 178.112 65.9098 181.501 65.9098H185.25C188.35 65.9098 188.45 66.9584 188.18 68.4963M174.263 66.0296L173.903 68.0569H167.014L166.764 69.4549H173.293L172.973 71.2625H166.444L166.194 72.6606H173.243L172.873 74.7577H163.135L164.675 66.0097H174.253L174.263 66.0296ZM160.356 68.6161L160.256 69.1753C160.046 70.3437 159.666 71.0328 158.376 71.3224V71.3424C159.146 71.4922 159.746 71.8417 159.496 73.2797L159.236 74.7677H156.557L156.746 73.7191C156.906 72.8004 156.696 72.5008 155.857 72.5008H151.638L151.238 74.7677H148.558L150.098 66.0196H158.196C160.266 66.0196 160.636 67.0482 160.366 68.6161M146.049 69.0155L145.919 69.7645C145.689 71.0727 144.859 72.5707 142.959 72.5707H137.621L137.231 74.7677H134.551L136.091 66.0196H143.409C145.959 66.0196 146.349 67.2979 146.049 69.0155ZM132.222 66.0296L130.682 74.7777H128.073L129.182 68.4963H129.162L124.533 74.7777H122.524L120.114 68.4963H120.094L118.985 74.7777H116.375L117.915 66.0296H122.034L124.073 71.6619L128.103 66.0296H132.222ZM113.686 69.0954L113.226 71.7019C112.776 74.2584 111.226 74.8675 108.807 74.8675H104.498C102.078 74.8675 100.748 74.2684 101.198 71.7019L101.658 69.0954C102.108 66.5389 103.658 65.9298 106.077 65.9298H110.386C112.806 65.9298 114.136 66.5289 113.686 69.0954ZM98.049 69.2253H95.3696L95.4096 68.9856C95.5196 68.3564 95.0897 68.1767 94.2898 68.1767H91.3605C89.9408 68.1767 89.5609 68.8458 89.3709 69.9243L89.2009 70.863C88.981 72.1313 89.1609 72.6106 90.4307 72.6106H93.3001C94.5098 72.6106 94.8897 72.4908 95.0897 71.4023H97.7691L97.6291 72.2212C97.3692 73.6991 96.6293 74.8575 93.9399 74.8575H89.6108C87.1914 74.8575 85.8617 74.2584 86.3116 71.6919L86.7715 69.0854C87.2214 66.5289 88.771 65.9198 91.1905 65.9198H94.3498C98.169 65.9198 98.5189 66.7387 98.059 69.2153M75.144 68.6161L75.044 69.1753C74.834 70.3437 74.4541 71.0328 73.1644 71.3224V71.3424C73.9342 71.4922 74.5341 71.8417 74.2841 73.2797L74.0242 74.7677H71.3448L71.5347 73.7191C71.6947 72.8004 71.4847 72.5008 70.6449 72.5008H66.4258L66.0259 74.7677H63.3465L64.8862 66.0196H72.9844C75.054 66.0196 75.4239 67.0482 75.1539 68.6161M60.867 66.0296L59.3273 74.7777H56.6479L58.1876 66.0296H60.867ZM53.4786 74.7677H50.4892L49.9294 73.2198H44.4905L43.4307 74.7677H40.4314L46.71 66.0196H50.2093L53.4786 74.7677ZM269.202 61.1763H23.685L20.6456 78.8621H266.073L269.202 61.1763Z" fill="#24305E"/>
</g>
<defs>
<clipPath id="clip0_3317_5046">
<rect width="280" height="95" fill="white"/>
</clipPath>
</defs>
</svg>
