<?xml version="1.0" encoding="UTF-8"?><svg id="Layer_1" xmlns="http://www.w3.org/2000/svg" viewBox="0 0 405.36 108.1"><defs><style>.cls-1{fill:#007bc1;}</style></defs><polyline class="cls-1" points="63.18 108.1 72.58 77.82 37.67 77.82 37.67 68.73 75.32 68.73 84.31 39.52 37.67 39.52 37.67 30.94 86.91 30.94 96.41 0 0 0 0 108.1 63.18 108.1"/><polygon class="cls-1" points="372.3 67.95 351.91 0 299.79 0 299.79 108.1 332.33 108.1 332.33 40.34 332.56 40.34 352.71 108.1 405.36 108.1 405.36 0 372.53 0 372.53 67.95 372.3 67.95"/><path class="cls-1" d="M266.97,80.37c12.03,0,21.48-9.55,21.48-21.71s-8.92-22.89-20.94-22.89-21.54,10.74-21.54,22.89,8.97,21.71,21,21.71Z"/><path class="cls-1" d="M249.68,0h-100.22v30.94h31.63v77.16h50.91c-3.17-1.85-24.79-18.59-24.79-49.98,0-25.98,16.21-51.57,42.47-58.12Z"/><polygon class="cls-1" points="113.34 79.44 104.45 108.1 156.59 108.1 148.26 79.44 113.34 79.44"/><polygon class="cls-1" points="131.12 20.72 141.09 55.16 120.72 55.16 131.12 20.72"/></svg>