<?xml version="1.0" encoding="UTF-8" standalone="no"?>
<svg xmlns:sketch="http://www.bohemiancoding.com/sketch/ns" xmlns="http://www.w3.org/2000/svg" height="135px" width="613px" version="1.1" xmlns:xlink="http://www.w3.org/1999/xlink" viewBox="0 0 613 135"><!-- Generator: Sketch 3.1.1 (8761) - http://www.bohemiancoding.com/sketch -->
 <title>logo 2</title>
 <desc>Created with Sketch.</desc>
 <defs>
  <radialGradient id="radialGradient-1">
   <stop stop-color="#fff" offset="0"/>
   <stop stop-color="#57B94D" offset="1"/>
  </radialGradient>
 </defs>
 <g id="Page-1" fill-rule="evenodd" sketch:type="MSPage" fill="none">
  <ellipse id="Oval-1" rx="50.006" sketch:type="MSShapeGroup" ry="50.111" cy="80.889" cx="96.994" fill="url(#radialGradient-1)"/>
  <path id="Oval-1" opacity=".4" fill="#fff" d="m99.691 39.418c21.469 0 38.879 17.407 38.879 38.879h-20.78c0-9.996-8.1-18.099-18.099-18.099v-20.78z" sketch:type="MSShapeGroup"/>
  <ellipse id="Oval-1" rx="23.327" sketch:type="MSShapeGroup" ry="23.327" cy="80.889" cx="97.099" fill="#222"/>
  <path id="Line" d="m7.4944 48.567s28.546-39.169 89.656-39.169 89.5 39.169 89.5 39.169" sketch:type="MSShapeGroup" stroke="#222" stroke-linecap="square" stroke-width="3"/>
  <path id="Optic" sketch:type="MSShapeGroup" fill="#000" d="m214.16 98.088c0 3.432-0.54 6.582-1.63 9.452s-2.63 5.34-4.61 7.41-4.37 3.68-7.15 4.82c-2.79 1.14-5.86 1.71-9.23 1.71s-6.45-0.57-9.22-1.71-5.15-2.75-7.14-4.82c-1.98-2.07-3.52-4.54-4.6-7.41-1.09-2.87-1.64-6.02-1.64-9.452 0-3.435 0.55-6.587 1.64-9.456 1.08-2.869 2.62-5.344 4.6-7.424 1.99-2.08 4.37-3.696 7.14-4.848s5.85-1.728 9.22-1.728 6.44 0.576 9.23 1.728c2.78 1.152 5.17 2.768 7.15 4.848s3.52 4.555 4.61 7.424 1.63 6.021 1.63 9.456zm-6.37 0c0-2.816-0.38-5.344-1.15-7.584s-1.86-4.133-3.26-5.68c-1.41-1.547-3.12-2.736-5.12-3.568-2.01-0.832-4.25-1.248-6.72-1.248-2.46 0-4.69 0.416-6.69 1.248-2.01 0.832-3.72 2.021-5.14 3.568s-2.51 3.44-3.28 5.68-1.15 4.768-1.15 7.584c0 2.812 0.38 5.342 1.15 7.572s1.86 4.11 3.28 5.66 3.13 2.73 5.14 3.55c2 0.82 4.23 1.23 6.69 1.23 2.47 0 4.71-0.41 6.72-1.23 2-0.82 3.71-2 5.12-3.55 1.4-1.55 2.49-3.43 3.26-5.66s1.15-4.76 1.15-7.572zm13.95 33.892v-43.396h3.4c0.81 0 1.32 0.395 1.53 1.184l0.48 3.84c1.39-1.685 2.97-3.04 4.75-4.064 1.79-1.024 3.84-1.536 6.16-1.536 1.86 0 3.55 0.357 5.06 1.072s2.81 1.771 3.87 3.168c1.07 1.397 1.89 3.131 2.47 5.2 0.57 2.069 0.86 4.452 0.86 7.132 0 2.39-0.32 4.62-0.96 6.68-0.64 2.05-1.56 3.84-2.75 5.34-1.2 1.5-2.66 2.69-4.4 3.55-1.74 0.87-3.7 1.3-5.87 1.3-2.01 0-3.72-0.33-5.14-0.99-1.42-0.67-2.67-1.6-3.76-2.82v14.34h-5.7zm14.44-39.364c-1.86 0-3.49 0.427-4.88 1.28-1.4 0.853-2.69 2.059-3.86 3.616v15.678c1.05 1.41 2.19 2.4 3.44 2.98 1.25 0.57 2.64 0.86 4.18 0.86 3 0 5.32-1.08 6.94-3.23s2.43-5.23 2.43-9.22c0-2.11-0.18-3.92-0.56-5.436-0.37-1.515-0.91-2.757-1.61-3.728-0.71-0.971-1.57-1.68-2.6-2.128-1.02-0.448-2.18-0.672-3.48-0.672zm30.72 28.894c-2.56 0-4.53-0.71-5.91-2.14-1.37-1.43-2.06-3.49-2.06-6.18v-19.838h-3.91c-0.34 0-0.63-0.101-0.86-0.304s-0.35-0.517-0.35-0.944v-2.272l5.31-0.672 1.31-10.016c0.04-0.32 0.18-0.581 0.42-0.784 0.23-0.203 0.53-0.304 0.89-0.304h2.88v11.168h9.28v4.128h-9.28v19.458c0 1.36 0.33 2.38 1 3.04 0.66 0.66 1.51 0.99 2.56 0.99 0.59 0 1.11-0.08 1.55-0.24s0.81-0.34 1.13-0.53 0.6-0.37 0.82-0.53 0.42-0.24 0.59-0.24c0.3 0 0.57 0.19 0.8 0.55l1.67 2.72c-0.99 0.92-2.17 1.64-3.56 2.16-1.38 0.52-2.81 0.78-4.28 0.78zm20.38-32.926v32.416h-5.7v-32.416h5.7zm1.28-10.176c0 0.555-0.11 1.072-0.34 1.552-0.22 0.48-0.52 0.907-0.89 1.28-0.38 0.373-0.81 0.667-1.3 0.88s-1.01 0.32-1.57 0.32c-0.55 0-1.07-0.107-1.55-0.32s-0.9-0.507-1.28-0.88c-0.37-0.373-0.66-0.8-0.88-1.28-0.21-0.48-0.32-0.997-0.32-1.552s0.11-1.083 0.32-1.584c0.22-0.501 0.51-0.939 0.88-1.312 0.38-0.373 0.8-0.667 1.28-0.88s1-0.32 1.55-0.32c0.56 0 1.08 0.107 1.57 0.32s0.92 0.507 1.3 0.88c0.37 0.373 0.67 0.811 0.89 1.312 0.23 0.501 0.34 1.029 0.34 1.584zm30.88 15.936c-0.17 0.235-0.34 0.416-0.51 0.544s-0.42 0.192-0.74 0.192-0.66-0.133-1.04-0.4c-0.37-0.267-0.85-0.56-1.42-0.88-0.58-0.32-1.28-0.613-2.1-0.88s-1.83-0.4-3.02-0.4c-1.58 0-2.98 0.283-4.19 0.848-1.22 0.565-2.24 1.381-3.06 2.448s-1.44 2.357-1.86 3.872c-0.41 1.512-0.62 3.212-0.62 5.092 0 1.96 0.22 3.7 0.67 5.23 0.45 1.52 1.08 2.8 1.89 3.84 0.81 1.03 1.8 1.82 2.96 2.37 1.16 0.54 2.47 0.81 3.92 0.81 1.39 0 2.53-0.16 3.42-0.49 0.9-0.33 1.65-0.7 2.24-1.11 0.6-0.4 1.09-0.77 1.48-1.1 0.38-0.33 0.76-0.5 1.15-0.5 0.49 0 0.85 0.18 1.09 0.55l1.6 2.08c-1.41 1.72-3.17 2.99-5.28 3.79-2.12 0.8-4.35 1.2-6.69 1.2-2.03 0-3.91-0.38-5.65-1.12-1.74-0.75-3.25-1.83-4.53-3.25s-2.29-3.16-3.02-5.23c-0.74-2.07-1.11-4.43-1.11-7.07 0-2.41 0.34-4.64 1.01-6.692 0.67-2.048 1.66-3.813 2.95-5.296s2.88-2.64 4.78-3.472 4.07-1.248 6.53-1.248c2.26 0 4.26 0.368 6.01 1.104s3.3 1.776 4.64 3.12l-1.5 2.048z"/>
  <path id="Eye-Clinic" sketch:type="MSShapeGroup" fill="#000" d="m375.86 75.72v2.72h-23.84v18.304h19.84v2.656h-19.84v18.88h23.84v2.72h-27.14v-45.28h27.14zm16.09 55.52c-0.13 0.3-0.29 0.54-0.49 0.74-0.21 0.19-0.5 0.28-0.88 0.28h-2.18l5.6-12.44-13.47-30.66h2.53c0.32 0 0.57 0.08 0.75 0.24s0.31 0.336 0.4 0.528l10.72 24.772c0.13 0.32 0.24 0.64 0.33 0.97 0.1 0.33 0.19 0.67 0.28 1.01 0.1-0.34 0.21-0.68 0.33-1.01s0.24-0.65 0.37-0.97l10.59-24.772c0.11-0.235 0.26-0.421 0.45-0.56s0.41-0.208 0.64-0.208h2.34l-18.31 42.08zm35.65-42.592c1.79 0 3.45 0.309 4.98 0.928 1.52 0.619 2.84 1.52 3.96 2.704s2 2.64 2.63 4.368 0.94 3.712 0.94 5.952c0 0.47-0.07 0.79-0.21 0.96-0.13 0.17-0.35 0.26-0.65 0.26h-23.01v0.6c0 2.39 0.28 4.49 0.83 6.31 0.56 1.81 1.35 3.33 2.37 4.56 1.02 1.22 2.26 2.15 3.71 2.77 1.45 0.61 3.07 0.92 4.87 0.92 1.6 0 2.98-0.17 4.16-0.52 1.17-0.36 2.16-0.75 2.96-1.19s1.43-0.83 1.9-1.18 0.81-0.53 1.02-0.53c0.28 0 0.49 0.11 0.64 0.32l0.84 1.02c-0.52 0.64-1.19 1.24-2.04 1.8-0.84 0.55-1.78 1.03-2.81 1.42-1.04 0.39-2.15 0.71-3.33 0.94-1.18 0.24-2.37 0.36-3.57 0.36-2.17 0-4.16-0.38-5.95-1.14s-3.33-1.86-4.61-3.31-2.26-3.23-2.96-5.33c-0.69-2.1-1.04-4.51-1.04-7.22 0-2.28 0.33-4.39 0.98-6.316 0.65-1.931 1.59-3.595 2.81-4.992 1.23-1.397 2.73-2.491 4.52-3.28 1.78-0.789 3.8-1.184 6.06-1.184zm0.03 2.272c-1.64 0-3.11 0.256-4.41 0.768-1.31 0.512-2.43 1.248-3.38 2.208s-1.72 2.112-2.3 3.456c-0.59 1.344-0.98 2.848-1.17 4.508h20.99c0-1.7-0.23-3.233-0.7-4.588s-1.13-2.501-1.99-3.44c-0.85-0.939-1.88-1.659-3.07-2.16s-2.52-0.752-3.97-0.752zm67.46 22.46c0.21 0 0.39 0.08 0.54 0.23l1.28 1.37c-0.94 1.01-1.96 1.91-3.07 2.71s-2.32 1.48-3.63 2.05c-1.31 0.56-2.75 1-4.32 1.31s-3.29 0.46-5.17 0.46c-3.14 0-6.01-0.55-8.62-1.65-2.62-1.09-4.86-2.65-6.72-4.67-1.87-2.01-3.33-4.45-4.37-7.31-1.05-2.86-1.57-6.04-1.57-9.536 0-3.435 0.54-6.571 1.62-9.408 1.07-2.837 2.59-5.275 4.54-7.312s4.29-3.616 7.01-4.736 5.72-1.68 9.01-1.68c1.64 0 3.14 0.123 4.51 0.368 1.36 0.245 2.64 0.597 3.82 1.056 1.19 0.459 2.3 1.029 3.35 1.712 1.04 0.683 2.07 1.472 3.07 2.368l-0.99 1.44c-0.17 0.256-0.44 0.384-0.8 0.384-0.2 0-0.44-0.112-0.74-0.336s-0.68-0.501-1.14-0.832c-0.45-0.331-1.01-0.693-1.66-1.088s-1.42-0.757-2.32-1.088-1.93-0.608-3.1-0.832c-1.18-0.224-2.51-0.336-4-0.336-2.76 0-5.28 0.475-7.59 1.424-2.3 0.949-4.29 2.304-5.95 4.064s-2.96 3.893-3.89 6.4-1.39 5.317-1.39 8.432c0 3.196 0.46 6.056 1.38 8.576 0.91 2.52 2.18 4.65 3.8 6.38 1.63 1.74 3.54 3.08 5.75 4 2.21 0.93 4.6 1.4 7.18 1.4 1.62 0 3.07-0.11 4.34-0.32 1.27-0.22 2.44-0.54 3.5-0.96 1.07-0.43 2.06-0.95 2.98-1.57s1.82-1.35 2.72-2.18c0.1-0.08 0.21-0.15 0.3-0.21 0.1-0.05 0.21-0.08 0.34-0.08zm14.53-38.94v46.56h-3.04v-46.56h3.04zm15.2 14.72v31.84h-3.04v-31.84h3.04zm1.34-10.976c0 0.384-0.08 0.741-0.24 1.072s-0.37 0.624-0.62 0.88c-0.26 0.256-0.56 0.459-0.9 0.608s-0.7 0.224-1.09 0.224c-0.38 0-0.74-0.075-1.09-0.224-0.34-0.149-0.64-0.352-0.89-0.608-0.26-0.256-0.46-0.549-0.61-0.88s-0.22-0.688-0.22-1.072 0.07-0.752 0.22-1.104 0.35-0.656 0.61-0.912c0.25-0.256 0.55-0.459 0.89-0.608 0.35-0.149 0.71-0.224 1.09-0.224 0.39 0 0.75 0.075 1.09 0.224s0.64 0.352 0.9 0.608c0.25 0.256 0.46 0.56 0.62 0.912s0.24 0.72 0.24 1.104zm9.92 42.816v-31.84h1.66c0.56 0 0.88 0.267 0.96 0.8l0.29 4.8c1.45-1.835 3.14-3.312 5.07-4.432s4.08-1.68 6.45-1.68c1.75 0 3.29 0.277 4.63 0.832 1.33 0.555 2.43 1.355 3.31 2.4 0.87 1.045 1.53 2.304 1.98 3.776s0.67 3.136 0.67 4.994v20.35h-3.04v-20.35c0-2.989-0.68-5.33-2.04-7.026-1.37-1.696-3.46-2.544-6.28-2.544-2.09 0-4.03 0.539-5.82 1.616s-3.39 2.555-4.8 4.432v23.872h-3.04zm38.56-31.84v31.84h-3.04v-31.84h3.04zm1.34-10.976c0 0.384-0.08 0.741-0.24 1.072s-0.36 0.624-0.62 0.88-0.55 0.459-0.9 0.608c-0.34 0.149-0.7 0.224-1.08 0.224-0.39 0-0.75-0.075-1.09-0.224s-0.64-0.352-0.9-0.608c-0.25-0.256-0.46-0.549-0.61-0.88s-0.22-0.688-0.22-1.072 0.07-0.752 0.22-1.104 0.36-0.656 0.61-0.912c0.26-0.256 0.56-0.459 0.9-0.608s0.7-0.224 1.09-0.224c0.38 0 0.74 0.075 1.08 0.224 0.35 0.149 0.64 0.352 0.9 0.608s0.46 0.56 0.62 0.912 0.24 0.72 0.24 1.104zm30.88 15.232c-0.1 0.107-0.2 0.197-0.3 0.272s-0.23 0.112-0.4 0.112c-0.21 0-0.51-0.144-0.88-0.432s-0.87-0.603-1.49-0.944-1.39-0.656-2.32-0.944-2.05-0.432-3.37-0.432c-1.84 0-3.47 0.325-4.88 0.976-1.42 0.651-2.62 1.584-3.59 2.8s-1.71 2.688-2.22 4.416c-0.51 1.73-0.77 3.67-0.77 5.82 0 2.24 0.26 4.23 0.78 5.96 0.53 1.72 1.27 3.18 2.23 4.36 0.96 1.19 2.12 2.09 3.49 2.71 1.36 0.62 2.88 0.93 4.54 0.93 1.54 0 2.82-0.19 3.86-0.55 1.03-0.36 1.88-0.76 2.56-1.18 0.67-0.43 1.2-0.82 1.6-1.19 0.39-0.36 0.71-0.54 0.94-0.54 0.28 0 0.49 0.11 0.64 0.32l0.83 1.02c-0.49 0.64-1.11 1.24-1.85 1.8-0.75 0.55-1.59 1.03-2.53 1.44-0.94 0.4-1.96 0.72-3.06 0.94s-2.24 0.34-3.44 0.34c-2.02 0-3.88-0.37-5.55-1.11-1.67-0.73-3.11-1.8-4.32-3.2s-2.14-3.11-2.82-5.13c-0.67-2.03-1-4.33-1-6.92 0-2.43 0.32-4.65 0.96-6.652 0.64-2.005 1.57-3.733 2.8-5.184 1.22-1.451 2.73-2.576 4.51-3.376s3.82-1.2 6.13-1.2c2.07 0 3.91 0.331 5.52 0.992s3.01 1.557 4.2 2.688l-0.8 1.088z"/>
 </g>
</svg>
