<?xml version="1.0" encoding="UTF-8"?>
<svg version="1.1" xmlns="http://www.w3.org/2000/svg" width="1213" height="216">
<path d="M0 0 C19.2225 -0.0825 38.445 -0.165 58.25 -0.25 C64.30118164 -0.28641602 70.35236328 -0.32283203 76.58691406 -0.36035156 C84.02294922 -0.37841797 84.02294922 -0.37841797 87.51312256 -0.3817749 C89.93095857 -0.38788427 92.34878302 -0.40188379 94.76654053 -0.42230225 C98.44646103 -0.45180429 102.12564211 -0.45561664 105.80566406 -0.45410156 C107.39909826 -0.47569021 107.39909826 -0.47569021 109.02472305 -0.497715 C122.61083582 -0.42339972 133.39375859 4.58067945 143.06640625 14.015625 C147.0908096 18.43116907 149.74573868 22.79318189 153 28 C153.33 19.09 153.66 10.18 154 1 C174.79 1 195.58 1 217 1 C217.03738281 9.14816406 217.07476562 17.29632813 217.11328125 25.69140625 C217.14740986 31.5115814 217.18340001 37.33172172 217.22207737 43.15186596 C217.27192269 50.68984879 217.31738683 58.22777439 217.34643555 65.76586914 C217.37191252 72.37306519 217.41284608 78.98004936 217.46318626 85.58711052 C217.479865 88.10722942 217.49137298 90.62738804 217.49761391 93.1475544 C217.50724365 96.6787737 217.53529114 100.2094042 217.56762695 103.74047852 C217.56619186 104.78129578 217.56475677 105.82211304 217.5632782 106.89447021 C217.65680193 114.1211506 218.53675915 119.07074061 223.3125 124.75 C229.03172425 129.53818775 234.60516785 131.20016087 242 131 C247.00452801 129.98504112 251.07027592 128.30096823 255 125 C255.66 125 256.32 125 257 125 C257.309375 124.21625 257.61875 123.4325 257.9375 122.625 C259 120 259 120 260 118 C260.1042112 116.44182966 260.14651469 114.87932595 260.15821838 113.31771851 C260.1680072 112.33051315 260.17779602 111.3433078 260.18788147 110.32618713 C260.19363693 109.23934128 260.1993924 108.15249542 260.20532227 107.03271484 C260.21522186 105.89125504 260.22512146 104.74979523 260.23532104 103.57374573 C260.26700665 99.78616436 260.29172138 95.99857044 260.31640625 92.2109375 C260.33696968 89.59062364 260.35796598 86.97031315 260.37937927 84.3500061 C260.42932354 78.14876233 260.47425592 71.94749269 260.51740164 65.7461983 C260.5715989 57.99482654 260.63246115 50.24350901 260.69335938 42.4921875 C260.80199058 28.66149995 260.90051334 14.83076307 261 1 C281.79 1 302.58 1 324 1 C324.33 32.35 324.66 63.7 325 96 C335.78047289 60.26642123 335.78047289 60.26642123 346.38671875 24.48046875 C346.62501404 23.66602295 346.86330933 22.85157715 347.10882568 22.01245117 C348.16780231 18.38830972 349.22166279 14.76276311 350.26904297 11.13525391 C350.62498535 9.91112793 350.98092773 8.68700195 351.34765625 7.42578125 C351.79637085 5.86984253 351.79637085 5.86984253 352.25415039 4.2824707 C353 2 353 2 354 1 C355.81055025 0.90623947 357.62477201 0.8825589 359.43774414 0.88647461 C361.17943626 0.88658791 361.17943626 0.88658791 362.95631409 0.88670349 C364.85159096 0.89444542 364.85159096 0.89444542 366.78515625 0.90234375 C368.71408974 0.90446617 368.71408974 0.90446617 370.68199158 0.90663147 C374.10643443 0.91045582 377.53083509 0.92028538 380.95526123 0.93133545 C384.44738189 0.94155136 387.93950934 0.94612947 391.43164062 0.95117188 C398.28777778 0.96190773 405.14388687 0.97898316 412 1 C415.93088379 16.20023497 419.32462788 31.52263816 422.76452637 46.83947754 C423.58121652 50.47402595 424.40008518 54.10808347 425.21875 57.7421875 C426.81458704 64.82765651 428.4080748 71.91365096 430 79 C432.75344185 68.96962858 435.2225897 58.91481556 437.453125 48.75390625 C437.76100984 47.36280689 438.06918227 45.97177116 438.37762451 44.58079529 C439.17610316 40.97636238 439.97075867 37.37109785 440.76452637 33.765625 C441.7244477 29.40941173 442.68928149 25.05428402 443.65325928 20.69896698 C445.10586799 14.13345343 446.55236307 7.56662044 448 1 C467.47 1 486.94 1 507 1 C513.58831441 22.50252064 520.13580194 44.01245708 526.5 65.58203125 C526.85225112 66.77550139 526.85225112 66.77550139 527.21161842 67.99308205 C529.57652704 76.00673954 531.93771642 84.02147479 534.29057121 92.03868008 C535.1821865 95.07491962 536.07608481 98.11048416 536.97041321 101.14592552 C537.3880691 102.56567481 537.80464479 103.9857424 538.220047 105.40615273 C540.25501182 112.36393994 542.31924327 119.2583161 545 126 C545.21725235 125.37916534 545.4345047 124.75833069 545.65834045 124.11868286 C556.48859954 93.17342712 567.3507281 62.24113527 578.42822266 31.38330078 C579.69019081 27.86663682 580.9467752 24.34808714 582.20045471 20.82846069 C583.25664085 17.86409435 584.31611584 14.90090347 585.375 11.9375 C585.73875732 10.91333984 586.10251465 9.88917969 586.47729492 8.83398438 C586.80189697 7.92841797 587.12649902 7.02285156 587.4609375 6.08984375 C587.73728027 5.31503662 588.01362305 4.54022949 588.29833984 3.74194336 C589 2 589 2 590 1 C592.43396019 0.90501354 594.83942952 0.87441583 597.27368164 0.88647461 C598.03460617 0.88632858 598.7955307 0.88618256 599.57951355 0.8860321 C602.10642298 0.88673138 604.63325962 0.89452445 607.16015625 0.90234375 C608.9075059 0.90420788 610.65485607 0.9056318 612.40220642 0.90663147 C617.01031934 0.91045707 621.61840095 0.92028771 626.22650146 0.93133545 C630.92508521 0.94154866 635.62367399 0.9461289 640.32226562 0.95117188 C649.54819087 0.96190995 658.77409284 0.97898687 668 1 C676.23195109 23.97729989 684.41222074 46.97149226 692.5 70 C698.2126949 86.26344314 703.94561193 102.51903526 709.75 118.75 C710.04730011 119.58168701 710.34460022 120.41337402 710.65090942 121.27026367 C713.81922461 130.13198817 716.99590774 138.99068431 720.17935181 147.84698486 C721.59305741 151.78154036 723.00439464 155.71694317 724.41540527 159.65246582 C725.41809456 162.44593687 726.42433435 165.23811219 727.43066406 168.03027344 C728.03599749 169.71803075 728.64115077 171.4058527 729.24609375 173.09375 C729.66673347 174.25605133 729.66673347 174.25605133 730.09587097 175.4418335 C732 180.77228607 732 180.77228607 732 183 C713.85 183 695.7 183 677 183 C671.29723502 169.31336406 671.29723502 169.31336406 669.6875 164.875 C669.36136719 163.98554688 669.03523437 163.09609375 668.69921875 162.1796875 C668 160 668 160 668 158 C640.61 158.33 613.22 158.66 585 159 C582.36 166.59 579.72 174.18 577 182 C575.31496301 183.68503699 573.23740116 183.11965983 570.98905945 183.12442017 C570.27264786 183.12082489 569.55623627 183.11722961 568.81811523 183.11352539 C567.6913588 183.11374443 567.6913588 183.11374443 566.5418396 183.1139679 C564.04739541 183.11326863 561.55302497 183.10547564 559.05859375 183.09765625 C557.33366436 183.09579212 555.60873443 183.09436819 553.88380432 183.09336853 C549.33487497 183.08954297 544.78597733 183.07971238 540.23706055 183.06866455 C535.59879994 183.05845124 530.96053423 183.05387108 526.32226562 183.04882812 C517.21482978 183.03809014 508.10741752 183.02101327 499 183 C495.91708083 174.30939474 493.65948523 165.41013933 491.33203125 156.49609375 C490.88817326 154.80495005 490.44405179 153.11387548 489.99967957 151.42286682 C488.83808439 146.999698 487.68004174 142.5756068 486.52276611 138.15130615 C485.33830798 133.62569284 484.15045142 129.10097181 482.96289062 124.57617188 C480.63862232 115.71831214 478.3181105 106.85947308 476 98 C473.52725805 107.39184569 471.55597471 116.85533362 469.6796875 126.37890625 C469.37279985 127.92404789 469.06559381 129.46912633 468.75808716 131.0141449 C467.95707762 135.04176231 467.1592281 139.06999788 466.36242676 143.09844971 C465.08102232 149.57623314 463.79652911 156.05339886 462.50860977 162.52989006 C462.06098334 164.7846926 461.61583381 167.03997449 461.17086792 169.29530334 C460.89770386 170.6715796 460.62444453 172.04783696 460.35107422 173.42407227 C459.99491531 175.22510155 459.99491531 175.22510155 459.63156128 177.06251526 C459 180 459 180 458 183 C439.52 183 421.04 183 402 183 C396.39 154.95 390.78 126.9 385 98 C383.02572479 103.26473389 381.30961119 108.1673251 379.85522461 113.54589844 C379.6629277 114.25265213 379.4706308 114.95940582 379.27250671 115.68757629 C378.85999116 117.20555394 378.44920739 118.7240031 378.0400219 120.24288177 C377.39183025 122.64839174 376.73872469 125.0525207 376.08436584 127.45635986 C374.46201216 133.41996903 372.84761068 139.38572388 371.23370361 145.35162354 C369.86514361 150.40969674 368.49321102 155.4668302 367.11657906 160.52271271 C366.47398034 162.88824147 365.83639798 165.2550857 365.19895935 167.62200928 C364.8046879 169.0719687 364.41017476 170.52186243 364.01538086 171.97167969 C363.67357285 173.23550476 363.33176483 174.49932983 362.979599 175.80145264 C362 179 362 179 360 183 C340.2 183 320.4 183 300 183 C302.25 172.875 302.25 172.875 303.2890625 169.18359375 C303.50820313 168.40048828 303.72734375 167.61738281 303.953125 166.81054688 C304.17484375 166.02744141 304.3965625 165.24433594 304.625 164.4375 C304.85445313 163.61958984 305.08390625 162.80167969 305.3203125 161.95898438 C305.8780488 159.9720488 306.43871096 157.98593489 307 156 C306.50113281 156.556875 306.00226563 157.11375 305.48828125 157.6875 C289.06582504 175.14188792 265.51379526 182.99492219 242 184 C216.36242627 184.31381511 191.97218106 176.11462402 173.2421875 158.3671875 C159.79310578 144.16833119 155.0550095 128.53490736 153.875 109.5 C153.78863281 108.200625 153.70226562 106.90125 153.61328125 105.5625 C153.40236792 102.3753652 153.19813202 99.18795059 153 96 C152.53891846 96.74403076 152.07783691 97.48806152 151.6027832 98.25463867 C150.98749756 99.2366626 150.37221191 100.21868652 149.73828125 101.23046875 C149.13282471 102.20137451 148.52736816 103.17228027 147.90356445 104.17260742 C141.09638554 114.28341145 130.8559012 121.21602239 119 124 C114.54539523 124.38968776 110.12110004 124.35086246 105.65234375 124.29296875 C104.54088989 124.28994751 103.42943604 124.28692627 102.28430176 124.28381348 C98.16860548 124.26822531 94.05304251 124.22634209 89.9375 124.1875 C80.718125 124.125625 71.49875 124.06375 62 124 C62 143.47 62 162.94 62 183 C41.54 183 21.08 183 0 183 C0 122.61 0 62.22 0 0 Z M62 48 C62 57.24 62 66.48 62 76 C66.00125 76.0825 70.0025 76.165 74.125 76.25 C75.37555176 76.28641602 76.62610352 76.32283203 77.91455078 76.36035156 C84.25315189 76.42366609 88.2366041 76.36108206 93 72 C96.35220588 68.20083334 96.56788986 64.39931035 96.421875 59.5078125 C95.75468891 55.54176183 93.93208653 52.71603805 91 50 C87.65336406 47.91876345 85.04551068 47.76484173 81.140625 47.8046875 C80.13547852 47.80968262 79.13033203 47.81467773 78.09472656 47.81982422 C76.8259668 47.83803223 75.55720703 47.85624023 74.25 47.875 C68.18625 47.936875 68.18625 47.936875 62 48 Z " fill="#006CB4" transform="translate(17,26)"/>
<path d="M0 0 C7.04890413 6.7284994 11.44072017 13.85962703 11.875 23.75 C11.56778795 36.36276133 4.76392576 46.04935872 -3.5625 55.0625 C-24.30619611 74.39288934 -52.32938203 85.70055716 -78.5 95.5625 C-79.61133301 95.98337891 -80.72266602 96.40425781 -81.86767578 96.83789062 C-172.51488771 130.87470964 -270.35879463 146.74922959 -366.5 154.875 C-367.52950775 154.9625354 -368.5590155 155.0500708 -369.61972046 155.14025879 C-372.55851724 155.3873918 -375.49781515 155.62696881 -378.4375 155.86328125 C-379.29402664 155.93486954 -380.15055328 156.00645782 -381.03303528 156.08021545 C-387.19688007 156.56071534 -393.31899394 156.6365276 -399.5 156.5625 C-395.74659843 154.55700775 -392.11717566 153.82398714 -387.94921875 153.15234375 C-386.38800946 152.88767222 -384.82689731 152.6224272 -383.26586914 152.35668945 C-382.44023468 152.21800446 -381.61460022 152.07931946 -380.76394653 151.93643188 C-312.47543701 140.36883965 -240.80351247 121.13386715 -182.5 82.5625 C-181.8827002 82.15467285 -181.26540039 81.7468457 -180.62939453 81.32666016 C-162.49036271 69.18674794 -140.42484958 52.58559943 -134.5 30.5625 C-133.65389862 23.18370893 -133.86631882 16.58502295 -138.5 10.5625 C-161.89841589 -16.02427146 -209.10911305 -15.00011033 -241.5 -17.4375 C-237.60323049 -19.90575842 -233.31180644 -20.14741938 -228.8359375 -20.65625 C-227.5515554 -20.81054474 -227.5515554 -20.81054474 -226.2412262 -20.96795654 C-223.45341804 -21.29973779 -220.66440609 -21.6194524 -217.875 -21.9375 C-216.44874802 -22.10324524 -216.44874802 -22.10324524 -214.99368286 -22.27233887 C-199.85198983 -24.03073933 -184.72409044 -25.59312169 -169.5 -26.4375 C-168.4884082 -26.49389648 -167.47681641 -26.55029297 -166.43457031 -26.60839844 C-38.92658242 -33.36564207 -38.92658242 -33.36564207 0 0 Z " fill="#F49C00" transform="translate(1193.5,46.4375)"/>
<path d="M0 0 C1.55850677 -0.01151093 1.55850677 -0.01151093 3.14849854 -0.02325439 C52.06690017 -0.3114122 52.06690017 -0.3114122 67.0625 14.375 C70.89454372 18.69833138 72.42917673 21.26857767 72.34375 27.15234375 C71.53577954 33.53755472 67.7640134 38.22017421 63.0625 42.375 C62.134375 43.303125 61.20625 44.23125 60.25 45.1875 C54.35770385 50.17033305 47.00524079 53.14503579 40.0625 56.375 C38.97066406 56.890625 37.87882813 57.40625 36.75390625 57.9375 C-13.20191936 80.43902243 -79.25403089 93.27637586 -133.9375 92.375 C-130.90720205 90.35480136 -129.37641364 89.92822487 -125.87109375 89.33203125 C-124.84129395 89.14914551 -123.81149414 88.96625977 -122.75048828 88.77783203 C-121.07962158 88.48561768 -121.07962158 88.48561768 -119.375 88.1875 C-82.73438011 81.43589463 -29.779005 69.45337713 -6.125 37.3125 C-2.74597206 32.29078897 -1.00062942 28.56503778 -1.9375 22.375 C-3.94154499 17.98614146 -6.1367573 16.32114714 -10.4375 14.25 C-11.3965625 13.77304688 -12.355625 13.29609375 -13.34375 12.8046875 C-22.73857709 9.0671802 -32.10368289 7.67612589 -42.125 6.6875 C-43.36314453 6.55794922 -44.60128906 6.42839844 -45.87695312 6.29492188 C-48.89639648 5.98015365 -51.91643037 5.67368157 -54.9375 5.375 C-41.8295552 -3.36362986 -15.21600897 0.04736255 0 0 Z " fill="#F49C00" transform="translate(881.9375,92.625)"/>
<path d="M0 0 C0.66 0 1.32 0 2 0 C5.78636583 11.42023392 9.56794992 22.84203875 13.34339142 34.26588917 C15.09651997 39.57005373 16.8513079 44.87365734 18.60986328 50.17602539 C20.30604213 55.29051942 21.99789439 60.40642566 23.6867218 65.52335167 C24.33267964 67.47794497 24.98021028 69.43201919 25.62931824 71.38556862 C26.53631116 74.11613238 27.43775784 76.8484673 28.33789062 79.58129883 C28.60906204 80.39337799 28.88023346 81.20545715 29.15962219 82.04214478 C30.1736005 85.13618159 31 87.72162566 31 91 C11.2 91 -8.6 91 -29 91 C-26.75026364 80.87618637 -26.75026364 80.87618637 -25.47875977 77.11157227 C-25.19372086 76.25986954 -24.90868195 75.40816681 -24.61500549 74.53065491 C-24.31021774 73.63495285 -24.00542999 72.73925079 -23.69140625 71.81640625 C-23.36845078 70.85451889 -23.0454953 69.89263153 -22.7127533 68.90159607 C-22.02283252 66.84789257 -21.3309334 64.79485276 -20.63720703 62.74243164 C-18.82299724 57.37439835 -17.02337999 52.00147542 -15.22265625 46.62890625 C-14.68356125 45.02216537 -14.68356125 45.02216537 -14.13357544 43.38296509 C-10.85857438 33.60912072 -7.66006853 23.81153471 -4.5 14 C-4.26507843 13.27104523 -4.03015686 12.54209045 -3.78811646 11.79104614 C-2.5222978 7.86169313 -1.25947714 3.93139117 0 0 Z " fill="#E22E35" transform="translate(643,66)"/>
</svg>
